G04*
G04 #@! TF.GenerationSoftware,Altium Limited,CircuitStudio,1.5.2 (30)*
G04*
G04 Layer_Color=128*
%FSLAX25Y25*%
%MOIN*%
G70*
G01*
G75*
%ADD20C,0.01000*%
%ADD44C,0.00500*%
G36*
X113180Y268298D02*
X113311D01*
X113453Y268287D01*
X113606Y268276D01*
X113956Y268243D01*
X114317Y268188D01*
X114667Y268123D01*
X114831Y268079D01*
X114995Y268024D01*
X115006D01*
X115027Y268013D01*
X115071Y267992D01*
X115126Y267970D01*
X115202Y267948D01*
X115279Y267904D01*
X115464Y267817D01*
X115661Y267707D01*
X115880Y267565D01*
X116077Y267401D01*
X116262Y267205D01*
Y267194D01*
X116284Y267183D01*
X116306Y267150D01*
X116328Y267106D01*
X116361Y267052D01*
X116404Y266997D01*
X116481Y266833D01*
X116558Y266636D01*
X116634Y266407D01*
X116678Y266133D01*
X116700Y265838D01*
Y265827D01*
Y265795D01*
Y265729D01*
X116689Y265652D01*
X116678Y265565D01*
X116656Y265456D01*
X116634Y265336D01*
X116601Y265204D01*
X116558Y265073D01*
X116514Y264931D01*
X116448Y264789D01*
X116372Y264647D01*
X116284Y264505D01*
X116175Y264363D01*
X116055Y264232D01*
X115924Y264111D01*
X115913Y264101D01*
X115880Y264079D01*
X115825Y264046D01*
X115738Y263991D01*
X115639Y263936D01*
X115508Y263882D01*
X115355Y263805D01*
X115180Y263740D01*
X114984Y263674D01*
X114754Y263609D01*
X114503Y263543D01*
X114218Y263488D01*
X113912Y263434D01*
X113585Y263401D01*
X113224Y263379D01*
X112841Y263368D01*
X112623D01*
X112503Y263379D01*
X112371D01*
X112229Y263390D01*
X112065Y263401D01*
X111726Y263434D01*
X111366Y263488D01*
X111005Y263554D01*
X110841Y263598D01*
X110677Y263641D01*
X110666D01*
X110644Y263652D01*
X110601Y263674D01*
X110546Y263696D01*
X110469Y263718D01*
X110393Y263762D01*
X110207Y263849D01*
X110011Y263958D01*
X109803Y264101D01*
X109595Y264264D01*
X109420Y264461D01*
Y264472D01*
X109398Y264483D01*
X109377Y264516D01*
X109355Y264560D01*
X109311Y264614D01*
X109278Y264680D01*
X109191Y264844D01*
X109114Y265040D01*
X109038Y265270D01*
X108994Y265543D01*
X108972Y265838D01*
Y265849D01*
Y265860D01*
Y265893D01*
Y265937D01*
X108983Y266057D01*
X109005Y266199D01*
X109038Y266363D01*
X109081Y266538D01*
X109136Y266724D01*
X109223Y266899D01*
Y266910D01*
X109234Y266920D01*
X109267Y266975D01*
X109322Y267062D01*
X109398Y267172D01*
X109508Y267292D01*
X109628Y267423D01*
X109770Y267543D01*
X109934Y267664D01*
X109956Y267675D01*
X110011Y267718D01*
X110109Y267762D01*
X110251Y267839D01*
X110415Y267904D01*
X110601Y267992D01*
X110819Y268068D01*
X111060Y268134D01*
X111071D01*
X111092Y268145D01*
X111125Y268156D01*
X111180Y268166D01*
X111246Y268177D01*
X111322Y268188D01*
X111420Y268210D01*
X111530Y268221D01*
X111650Y268243D01*
X111781Y268254D01*
X111934Y268265D01*
X112087Y268287D01*
X112262Y268298D01*
X112437D01*
X112634Y268308D01*
X113060D01*
X113180Y268298D01*
D02*
G37*
G36*
X376411Y343851D02*
X372782D01*
X372662Y343840D01*
X372531Y343829D01*
X372400Y343818D01*
X372269Y343797D01*
X372170Y343764D01*
X372159D01*
X372126Y343742D01*
X372083Y343720D01*
X372028Y343687D01*
X371962Y343644D01*
X371897Y343589D01*
X371831Y343523D01*
X371766Y343436D01*
X371755Y343425D01*
X371744Y343392D01*
X371722Y343349D01*
X371689Y343272D01*
X371656Y343196D01*
X371635Y343097D01*
X371624Y342999D01*
X371613Y342879D01*
Y342868D01*
Y342857D01*
Y342824D01*
X371624Y342780D01*
X371635Y342671D01*
X371656Y342540D01*
X371711Y342387D01*
X371777Y342223D01*
X371875Y342059D01*
X372006Y341906D01*
X372028Y341895D01*
X372083Y341851D01*
X372170Y341786D01*
X372301Y341720D01*
X372476Y341644D01*
X372684Y341589D01*
X372935Y341545D01*
X373230Y341523D01*
X376411D01*
Y340594D01*
X372760D01*
X372640Y340583D01*
X372509Y340561D01*
X372356Y340540D01*
X372203Y340496D01*
X372061Y340441D01*
X371930Y340365D01*
X371919Y340354D01*
X371875Y340321D01*
X371831Y340266D01*
X371766Y340190D01*
X371711Y340091D01*
X371656Y339960D01*
X371624Y339807D01*
X371613Y339621D01*
Y339599D01*
Y339556D01*
X371624Y339479D01*
X371635Y339392D01*
X371667Y339283D01*
X371700Y339151D01*
X371755Y339031D01*
X371820Y338900D01*
X371831Y338889D01*
X371864Y338845D01*
X371908Y338791D01*
X371973Y338714D01*
X372061Y338638D01*
X372170Y338561D01*
X372290Y338485D01*
X372432Y338419D01*
X372454Y338408D01*
X372509Y338397D01*
X372596Y338375D01*
X372717Y338343D01*
X372881Y338310D01*
X373077Y338288D01*
X373307Y338277D01*
X373569Y338266D01*
X376411D01*
Y337337D01*
X370924D01*
Y338168D01*
X371711D01*
X371689Y338179D01*
X371645Y338211D01*
X371569Y338277D01*
X371482Y338353D01*
X371372Y338452D01*
X371263Y338572D01*
X371154Y338703D01*
X371055Y338856D01*
X371044Y338878D01*
X371012Y338933D01*
X370979Y339020D01*
X370924Y339141D01*
X370880Y339283D01*
X370848Y339446D01*
X370815Y339632D01*
X370804Y339829D01*
Y339840D01*
Y339862D01*
Y339884D01*
Y339927D01*
X370815Y340048D01*
X370837Y340179D01*
X370869Y340343D01*
X370913Y340507D01*
X370979Y340671D01*
X371066Y340824D01*
X371077Y340846D01*
X371110Y340889D01*
X371165Y340955D01*
X371252Y341042D01*
X371350Y341130D01*
X371471Y341228D01*
X371613Y341316D01*
X371777Y341381D01*
X371766Y341392D01*
X371733Y341414D01*
X371689Y341447D01*
X371624Y341501D01*
X371547Y341567D01*
X371471Y341644D01*
X371383Y341731D01*
X371285Y341840D01*
X371197Y341960D01*
X371110Y342081D01*
X371033Y342223D01*
X370957Y342376D01*
X370891Y342540D01*
X370848Y342715D01*
X370815Y342889D01*
X370804Y343086D01*
Y343097D01*
Y343119D01*
Y343163D01*
X370815Y343217D01*
Y343294D01*
X370826Y343370D01*
X370859Y343556D01*
X370913Y343753D01*
X371001Y343961D01*
X371110Y344168D01*
X371263Y344343D01*
X371285Y344365D01*
X371350Y344409D01*
X371449Y344485D01*
X371525Y344518D01*
X371602Y344562D01*
X371700Y344605D01*
X371798Y344638D01*
X371908Y344682D01*
X372039Y344715D01*
X372170Y344737D01*
X372323Y344759D01*
X372476Y344780D01*
X376411D01*
Y343851D01*
D02*
G37*
G36*
X113180Y262417D02*
X113311D01*
X113453Y262406D01*
X113606Y262395D01*
X113956Y262363D01*
X114317Y262308D01*
X114667Y262242D01*
X114831Y262199D01*
X114995Y262144D01*
X115006D01*
X115027Y262133D01*
X115071Y262111D01*
X115126Y262089D01*
X115202Y262068D01*
X115279Y262024D01*
X115464Y261936D01*
X115661Y261827D01*
X115880Y261685D01*
X116077Y261521D01*
X116262Y261324D01*
Y261313D01*
X116284Y261302D01*
X116306Y261270D01*
X116328Y261226D01*
X116361Y261171D01*
X116404Y261117D01*
X116481Y260953D01*
X116558Y260756D01*
X116634Y260526D01*
X116678Y260253D01*
X116700Y259958D01*
Y259947D01*
Y259914D01*
Y259849D01*
X116689Y259772D01*
X116678Y259685D01*
X116656Y259576D01*
X116634Y259455D01*
X116601Y259324D01*
X116558Y259193D01*
X116514Y259051D01*
X116448Y258909D01*
X116372Y258767D01*
X116284Y258625D01*
X116175Y258483D01*
X116055Y258351D01*
X115924Y258231D01*
X115913Y258220D01*
X115880Y258198D01*
X115825Y258166D01*
X115738Y258111D01*
X115639Y258056D01*
X115508Y258001D01*
X115355Y257925D01*
X115180Y257859D01*
X114984Y257794D01*
X114754Y257728D01*
X114503Y257663D01*
X114218Y257608D01*
X113912Y257553D01*
X113585Y257521D01*
X113224Y257499D01*
X112841Y257488D01*
X112623D01*
X112503Y257499D01*
X112371D01*
X112229Y257510D01*
X112065Y257521D01*
X111726Y257553D01*
X111366Y257608D01*
X111005Y257674D01*
X110841Y257717D01*
X110677Y257761D01*
X110666D01*
X110644Y257772D01*
X110601Y257794D01*
X110546Y257816D01*
X110469Y257838D01*
X110393Y257881D01*
X110207Y257969D01*
X110011Y258078D01*
X109803Y258220D01*
X109595Y258384D01*
X109420Y258581D01*
Y258592D01*
X109398Y258603D01*
X109377Y258635D01*
X109355Y258679D01*
X109311Y258734D01*
X109278Y258799D01*
X109191Y258963D01*
X109114Y259160D01*
X109038Y259390D01*
X108994Y259663D01*
X108972Y259958D01*
Y259969D01*
Y259980D01*
Y260013D01*
Y260056D01*
X108983Y260177D01*
X109005Y260319D01*
X109038Y260483D01*
X109081Y260658D01*
X109136Y260843D01*
X109223Y261018D01*
Y261029D01*
X109234Y261040D01*
X109267Y261095D01*
X109322Y261182D01*
X109398Y261292D01*
X109508Y261412D01*
X109628Y261543D01*
X109770Y261663D01*
X109934Y261783D01*
X109956Y261794D01*
X110011Y261838D01*
X110109Y261882D01*
X110251Y261958D01*
X110415Y262024D01*
X110601Y262111D01*
X110819Y262188D01*
X111060Y262253D01*
X111071D01*
X111092Y262264D01*
X111125Y262275D01*
X111180Y262286D01*
X111246Y262297D01*
X111322Y262308D01*
X111420Y262330D01*
X111530Y262341D01*
X111650Y262363D01*
X111781Y262373D01*
X111934Y262385D01*
X112087Y262406D01*
X112262Y262417D01*
X112437D01*
X112634Y262428D01*
X113060D01*
X113180Y262417D01*
D02*
G37*
G36*
X249303Y418576D02*
X249445Y418554D01*
X249609Y418521D01*
X249784Y418478D01*
X249970Y418423D01*
X250144Y418335D01*
X250155D01*
X250166Y418325D01*
X250221Y418292D01*
X250308Y418237D01*
X250418Y418161D01*
X250538Y418051D01*
X250669Y417931D01*
X250789Y417789D01*
X250909Y417625D01*
X250920Y417603D01*
X250964Y417549D01*
X251008Y417450D01*
X251084Y417308D01*
X251150Y417144D01*
X251237Y416958D01*
X251314Y416740D01*
X251379Y416499D01*
Y416488D01*
X251390Y416467D01*
X251401Y416434D01*
X251412Y416379D01*
X251423Y416314D01*
X251434Y416237D01*
X251456Y416139D01*
X251467Y416029D01*
X251489Y415909D01*
X251500Y415778D01*
X251511Y415625D01*
X251533Y415472D01*
X251543Y415297D01*
Y415122D01*
X251554Y414925D01*
Y414718D01*
Y414707D01*
Y414663D01*
Y414586D01*
Y414499D01*
X251543Y414379D01*
Y414248D01*
X251533Y414106D01*
X251522Y413953D01*
X251489Y413603D01*
X251434Y413242D01*
X251369Y412892D01*
X251325Y412728D01*
X251270Y412565D01*
Y412554D01*
X251259Y412532D01*
X251237Y412488D01*
X251216Y412433D01*
X251194Y412357D01*
X251150Y412280D01*
X251062Y412094D01*
X250953Y411898D01*
X250811Y411679D01*
X250647Y411482D01*
X250450Y411297D01*
X250440D01*
X250429Y411275D01*
X250396Y411253D01*
X250352Y411231D01*
X250297Y411198D01*
X250243Y411155D01*
X250079Y411078D01*
X249882Y411001D01*
X249653Y410925D01*
X249379Y410881D01*
X249084Y410859D01*
X248975D01*
X248898Y410870D01*
X248811Y410881D01*
X248702Y410903D01*
X248581Y410925D01*
X248450Y410958D01*
X248319Y411001D01*
X248177Y411045D01*
X248035Y411111D01*
X247893Y411187D01*
X247751Y411275D01*
X247609Y411384D01*
X247478Y411504D01*
X247357Y411635D01*
X247346Y411646D01*
X247324Y411679D01*
X247292Y411734D01*
X247237Y411821D01*
X247182Y411920D01*
X247128Y412051D01*
X247051Y412204D01*
X246986Y412379D01*
X246920Y412575D01*
X246854Y412805D01*
X246789Y413056D01*
X246734Y413341D01*
X246680Y413647D01*
X246647Y413975D01*
X246625Y414335D01*
X246614Y414718D01*
Y414729D01*
Y414772D01*
Y414849D01*
Y414936D01*
X246625Y415057D01*
Y415188D01*
X246636Y415330D01*
X246647Y415494D01*
X246680Y415833D01*
X246734Y416193D01*
X246800Y416554D01*
X246844Y416718D01*
X246887Y416882D01*
Y416893D01*
X246898Y416915D01*
X246920Y416958D01*
X246942Y417013D01*
X246964Y417090D01*
X247007Y417166D01*
X247095Y417352D01*
X247204Y417549D01*
X247346Y417756D01*
X247510Y417964D01*
X247707Y418139D01*
X247718D01*
X247729Y418161D01*
X247762Y418183D01*
X247805Y418204D01*
X247860Y418248D01*
X247926Y418281D01*
X248090Y418368D01*
X248286Y418445D01*
X248516Y418521D01*
X248789Y418565D01*
X249084Y418587D01*
X249183D01*
X249303Y418576D01*
D02*
G37*
G36*
X116569Y276014D02*
X112940D01*
X112820Y276003D01*
X112688Y275992D01*
X112557Y275981D01*
X112426Y275959D01*
X112328Y275927D01*
X112317D01*
X112284Y275905D01*
X112240Y275883D01*
X112186Y275850D01*
X112120Y275806D01*
X112054Y275752D01*
X111989Y275686D01*
X111923Y275599D01*
X111912Y275588D01*
X111901Y275555D01*
X111880Y275511D01*
X111847Y275435D01*
X111814Y275358D01*
X111792Y275260D01*
X111781Y275162D01*
X111770Y275041D01*
Y275030D01*
Y275020D01*
Y274987D01*
X111781Y274943D01*
X111792Y274834D01*
X111814Y274703D01*
X111869Y274550D01*
X111934Y274386D01*
X112032Y274222D01*
X112164Y274069D01*
X112186Y274058D01*
X112240Y274014D01*
X112328Y273948D01*
X112459Y273883D01*
X112634Y273806D01*
X112841Y273752D01*
X113093Y273708D01*
X113388Y273686D01*
X116569D01*
Y272757D01*
X112918D01*
X112798Y272746D01*
X112666Y272724D01*
X112513Y272702D01*
X112360Y272659D01*
X112218Y272604D01*
X112087Y272528D01*
X112076Y272517D01*
X112032Y272484D01*
X111989Y272429D01*
X111923Y272353D01*
X111869Y272254D01*
X111814Y272123D01*
X111781Y271970D01*
X111770Y271784D01*
Y271762D01*
Y271719D01*
X111781Y271642D01*
X111792Y271555D01*
X111825Y271445D01*
X111858Y271314D01*
X111912Y271194D01*
X111978Y271063D01*
X111989Y271052D01*
X112022Y271008D01*
X112065Y270954D01*
X112131Y270877D01*
X112218Y270801D01*
X112328Y270724D01*
X112448Y270648D01*
X112590Y270582D01*
X112612Y270571D01*
X112666Y270560D01*
X112754Y270538D01*
X112874Y270505D01*
X113038Y270473D01*
X113235Y270451D01*
X113464Y270440D01*
X113727Y270429D01*
X116569D01*
Y269500D01*
X111082D01*
Y270331D01*
X111869D01*
X111847Y270341D01*
X111803Y270374D01*
X111726Y270440D01*
X111639Y270516D01*
X111530Y270615D01*
X111420Y270735D01*
X111311Y270866D01*
X111213Y271019D01*
X111202Y271041D01*
X111169Y271096D01*
X111136Y271183D01*
X111082Y271303D01*
X111038Y271445D01*
X111005Y271609D01*
X110972Y271795D01*
X110961Y271992D01*
Y272003D01*
Y272025D01*
Y272047D01*
Y272090D01*
X110972Y272211D01*
X110994Y272342D01*
X111027Y272506D01*
X111071Y272670D01*
X111136Y272834D01*
X111224Y272987D01*
X111235Y273008D01*
X111267Y273052D01*
X111322Y273118D01*
X111409Y273205D01*
X111508Y273293D01*
X111628Y273391D01*
X111770Y273478D01*
X111934Y273544D01*
X111923Y273555D01*
X111890Y273577D01*
X111847Y273610D01*
X111781Y273664D01*
X111705Y273730D01*
X111628Y273806D01*
X111541Y273894D01*
X111442Y274003D01*
X111355Y274123D01*
X111267Y274243D01*
X111191Y274386D01*
X111114Y274539D01*
X111049Y274703D01*
X111005Y274878D01*
X110972Y275052D01*
X110961Y275249D01*
Y275260D01*
Y275282D01*
Y275326D01*
X110972Y275380D01*
Y275457D01*
X110983Y275533D01*
X111016Y275719D01*
X111071Y275916D01*
X111158Y276123D01*
X111267Y276331D01*
X111420Y276506D01*
X111442Y276528D01*
X111508Y276572D01*
X111606Y276648D01*
X111683Y276681D01*
X111759Y276725D01*
X111858Y276768D01*
X111956Y276801D01*
X112065Y276845D01*
X112197Y276878D01*
X112328Y276900D01*
X112481Y276921D01*
X112634Y276943D01*
X116569D01*
Y276014D01*
D02*
G37*
G36*
X249461Y406765D02*
X249603Y406743D01*
X249767Y406710D01*
X249942Y406667D01*
X250128Y406612D01*
X250303Y406525D01*
X250314D01*
X250325Y406514D01*
X250379Y406481D01*
X250467Y406426D01*
X250576Y406350D01*
X250696Y406240D01*
X250828Y406120D01*
X250948Y405978D01*
X251068Y405814D01*
X251079Y405792D01*
X251123Y405738D01*
X251166Y405639D01*
X251243Y405497D01*
X251308Y405333D01*
X251396Y405147D01*
X251472Y404929D01*
X251538Y404688D01*
Y404677D01*
X251549Y404656D01*
X251560Y404623D01*
X251571Y404568D01*
X251582Y404502D01*
X251593Y404426D01*
X251614Y404328D01*
X251625Y404218D01*
X251647Y404098D01*
X251658Y403967D01*
X251669Y403814D01*
X251691Y403661D01*
X251702Y403486D01*
Y403311D01*
X251713Y403114D01*
Y402907D01*
Y402896D01*
Y402852D01*
Y402775D01*
Y402688D01*
X251702Y402568D01*
Y402437D01*
X251691Y402295D01*
X251680Y402142D01*
X251647Y401792D01*
X251593Y401431D01*
X251527Y401081D01*
X251483Y400917D01*
X251429Y400753D01*
Y400742D01*
X251418Y400721D01*
X251396Y400677D01*
X251374Y400622D01*
X251352Y400546D01*
X251308Y400469D01*
X251221Y400283D01*
X251112Y400087D01*
X250970Y399868D01*
X250806Y399671D01*
X250609Y399486D01*
X250598D01*
X250587Y399464D01*
X250554Y399442D01*
X250511Y399420D01*
X250456Y399387D01*
X250401Y399343D01*
X250237Y399267D01*
X250041Y399190D01*
X249811Y399114D01*
X249538Y399070D01*
X249243Y399048D01*
X249133D01*
X249057Y399059D01*
X248969Y399070D01*
X248860Y399092D01*
X248740Y399114D01*
X248609Y399147D01*
X248478Y399190D01*
X248336Y399234D01*
X248193Y399300D01*
X248051Y399376D01*
X247909Y399464D01*
X247767Y399573D01*
X247636Y399693D01*
X247516Y399824D01*
X247505Y399835D01*
X247483Y399868D01*
X247450Y399923D01*
X247395Y400010D01*
X247341Y400109D01*
X247286Y400240D01*
X247210Y400393D01*
X247144Y400568D01*
X247078Y400764D01*
X247013Y400994D01*
X246947Y401245D01*
X246893Y401530D01*
X246838Y401836D01*
X246805Y402164D01*
X246783Y402524D01*
X246773Y402907D01*
Y402918D01*
Y402961D01*
Y403038D01*
Y403125D01*
X246783Y403245D01*
Y403377D01*
X246794Y403519D01*
X246805Y403683D01*
X246838Y404022D01*
X246893Y404382D01*
X246958Y404743D01*
X247002Y404907D01*
X247046Y405071D01*
Y405082D01*
X247057Y405104D01*
X247078Y405147D01*
X247100Y405202D01*
X247122Y405278D01*
X247166Y405355D01*
X247253Y405541D01*
X247363Y405738D01*
X247505Y405945D01*
X247669Y406153D01*
X247866Y406328D01*
X247876D01*
X247887Y406350D01*
X247920Y406371D01*
X247964Y406393D01*
X248019Y406437D01*
X248084Y406470D01*
X248248Y406557D01*
X248445Y406634D01*
X248674Y406710D01*
X248948Y406754D01*
X249243Y406776D01*
X249341D01*
X249461Y406765D01*
D02*
G37*
G36*
X230093Y401847D02*
X231121D01*
Y400994D01*
X230093D01*
Y399180D01*
X229164D01*
Y400994D01*
X225874D01*
Y401847D01*
X229339Y406743D01*
X230093D01*
Y401847D01*
D02*
G37*
G36*
X116569Y284824D02*
X112940D01*
X112820Y284813D01*
X112688Y284802D01*
X112557Y284791D01*
X112426Y284769D01*
X112328Y284736D01*
X112317D01*
X112284Y284715D01*
X112240Y284693D01*
X112186Y284660D01*
X112120Y284616D01*
X112054Y284561D01*
X111989Y284496D01*
X111923Y284408D01*
X111912Y284398D01*
X111901Y284365D01*
X111880Y284321D01*
X111847Y284244D01*
X111814Y284168D01*
X111792Y284070D01*
X111781Y283971D01*
X111770Y283851D01*
Y283840D01*
Y283829D01*
Y283796D01*
X111781Y283753D01*
X111792Y283643D01*
X111814Y283512D01*
X111869Y283359D01*
X111934Y283195D01*
X112032Y283031D01*
X112164Y282878D01*
X112186Y282867D01*
X112240Y282824D01*
X112328Y282758D01*
X112459Y282692D01*
X112634Y282616D01*
X112841Y282561D01*
X113093Y282518D01*
X113388Y282496D01*
X116569D01*
Y281567D01*
X112918D01*
X112798Y281556D01*
X112666Y281534D01*
X112513Y281512D01*
X112360Y281468D01*
X112218Y281414D01*
X112087Y281337D01*
X112076Y281326D01*
X112032Y281293D01*
X111989Y281239D01*
X111923Y281162D01*
X111869Y281064D01*
X111814Y280933D01*
X111781Y280780D01*
X111770Y280594D01*
Y280572D01*
Y280528D01*
X111781Y280452D01*
X111792Y280364D01*
X111825Y280255D01*
X111858Y280124D01*
X111912Y280004D01*
X111978Y279872D01*
X111989Y279861D01*
X112022Y279818D01*
X112065Y279763D01*
X112131Y279687D01*
X112218Y279610D01*
X112328Y279534D01*
X112448Y279457D01*
X112590Y279392D01*
X112612Y279381D01*
X112666Y279370D01*
X112754Y279348D01*
X112874Y279315D01*
X113038Y279282D01*
X113235Y279260D01*
X113464Y279250D01*
X113727Y279239D01*
X116569D01*
Y278309D01*
X111082D01*
Y279140D01*
X111869D01*
X111847Y279151D01*
X111803Y279184D01*
X111726Y279250D01*
X111639Y279326D01*
X111530Y279424D01*
X111420Y279545D01*
X111311Y279676D01*
X111213Y279829D01*
X111202Y279851D01*
X111169Y279905D01*
X111136Y279993D01*
X111082Y280113D01*
X111038Y280255D01*
X111005Y280419D01*
X110972Y280605D01*
X110961Y280802D01*
Y280812D01*
Y280834D01*
Y280856D01*
Y280900D01*
X110972Y281020D01*
X110994Y281151D01*
X111027Y281315D01*
X111071Y281479D01*
X111136Y281643D01*
X111224Y281796D01*
X111235Y281818D01*
X111267Y281862D01*
X111322Y281927D01*
X111409Y282015D01*
X111508Y282102D01*
X111628Y282201D01*
X111770Y282288D01*
X111934Y282354D01*
X111923Y282365D01*
X111890Y282386D01*
X111847Y282419D01*
X111781Y282474D01*
X111705Y282539D01*
X111628Y282616D01*
X111541Y282703D01*
X111442Y282813D01*
X111355Y282933D01*
X111267Y283053D01*
X111191Y283195D01*
X111114Y283348D01*
X111049Y283512D01*
X111005Y283687D01*
X110972Y283862D01*
X110961Y284059D01*
Y284070D01*
Y284091D01*
Y284135D01*
X110972Y284190D01*
Y284266D01*
X110983Y284343D01*
X111016Y284529D01*
X111071Y284725D01*
X111158Y284933D01*
X111267Y285141D01*
X111420Y285316D01*
X111442Y285337D01*
X111508Y285381D01*
X111606Y285458D01*
X111683Y285490D01*
X111759Y285534D01*
X111858Y285578D01*
X111956Y285611D01*
X112065Y285654D01*
X112197Y285687D01*
X112328Y285709D01*
X112481Y285731D01*
X112634Y285753D01*
X116569D01*
Y284824D01*
D02*
G37*
G36*
X243581Y406765D02*
X243723Y406743D01*
X243887Y406710D01*
X244062Y406667D01*
X244248Y406612D01*
X244423Y406525D01*
X244433D01*
X244444Y406514D01*
X244499Y406481D01*
X244586Y406426D01*
X244696Y406350D01*
X244816Y406240D01*
X244947Y406120D01*
X245067Y405978D01*
X245188Y405814D01*
X245199Y405792D01*
X245242Y405738D01*
X245286Y405639D01*
X245362Y405497D01*
X245428Y405333D01*
X245515Y405147D01*
X245592Y404929D01*
X245658Y404688D01*
Y404677D01*
X245669Y404656D01*
X245679Y404623D01*
X245690Y404568D01*
X245701Y404502D01*
X245712Y404426D01*
X245734Y404328D01*
X245745Y404218D01*
X245767Y404098D01*
X245778Y403967D01*
X245789Y403814D01*
X245811Y403661D01*
X245822Y403486D01*
Y403311D01*
X245832Y403114D01*
Y402907D01*
Y402896D01*
Y402852D01*
Y402775D01*
Y402688D01*
X245822Y402568D01*
Y402437D01*
X245811Y402295D01*
X245800Y402142D01*
X245767Y401792D01*
X245712Y401431D01*
X245647Y401081D01*
X245603Y400917D01*
X245548Y400753D01*
Y400742D01*
X245537Y400721D01*
X245515Y400677D01*
X245494Y400622D01*
X245472Y400546D01*
X245428Y400469D01*
X245341Y400283D01*
X245231Y400087D01*
X245089Y399868D01*
X244925Y399671D01*
X244729Y399486D01*
X244718D01*
X244707Y399464D01*
X244674Y399442D01*
X244630Y399420D01*
X244576Y399387D01*
X244521Y399343D01*
X244357Y399267D01*
X244160Y399190D01*
X243931Y399114D01*
X243657Y399070D01*
X243362Y399048D01*
X243253D01*
X243177Y399059D01*
X243089Y399070D01*
X242980Y399092D01*
X242860Y399114D01*
X242728Y399147D01*
X242597Y399190D01*
X242455Y399234D01*
X242313Y399300D01*
X242171Y399376D01*
X242029Y399464D01*
X241887Y399573D01*
X241756Y399693D01*
X241635Y399824D01*
X241624Y399835D01*
X241603Y399868D01*
X241570Y399923D01*
X241515Y400010D01*
X241460Y400109D01*
X241406Y400240D01*
X241329Y400393D01*
X241264Y400568D01*
X241198Y400764D01*
X241133Y400994D01*
X241067Y401245D01*
X241012Y401530D01*
X240958Y401836D01*
X240925Y402164D01*
X240903Y402524D01*
X240892Y402907D01*
Y402918D01*
Y402961D01*
Y403038D01*
Y403125D01*
X240903Y403245D01*
Y403377D01*
X240914Y403519D01*
X240925Y403683D01*
X240958Y404022D01*
X241012Y404382D01*
X241078Y404743D01*
X241122Y404907D01*
X241165Y405071D01*
Y405082D01*
X241176Y405104D01*
X241198Y405147D01*
X241220Y405202D01*
X241242Y405278D01*
X241286Y405355D01*
X241373Y405541D01*
X241482Y405738D01*
X241624Y405945D01*
X241788Y406153D01*
X241985Y406328D01*
X241996D01*
X242007Y406350D01*
X242040Y406371D01*
X242084Y406393D01*
X242138Y406437D01*
X242204Y406470D01*
X242368Y406557D01*
X242564Y406634D01*
X242794Y406710D01*
X243067Y406754D01*
X243362Y406776D01*
X243461D01*
X243581Y406765D01*
D02*
G37*
G36*
X258626Y416587D02*
X258703D01*
X258779Y416576D01*
X258965Y416543D01*
X259162Y416488D01*
X259369Y416401D01*
X259577Y416292D01*
X259752Y416139D01*
X259774Y416117D01*
X259818Y416051D01*
X259894Y415953D01*
X259927Y415876D01*
X259970Y415800D01*
X260014Y415701D01*
X260047Y415603D01*
X260091Y415494D01*
X260123Y415363D01*
X260145Y415231D01*
X260167Y415078D01*
X260189Y414925D01*
Y414750D01*
Y410991D01*
X259260D01*
Y414433D01*
Y414444D01*
Y414455D01*
Y414521D01*
Y414619D01*
X259249Y414740D01*
X259238Y414871D01*
X259227Y415002D01*
X259205Y415133D01*
X259173Y415231D01*
Y415242D01*
X259151Y415275D01*
X259129Y415319D01*
X259096Y415374D01*
X259052Y415439D01*
X258998Y415505D01*
X258932Y415570D01*
X258845Y415636D01*
X258834Y415647D01*
X258801Y415658D01*
X258757Y415680D01*
X258681Y415712D01*
X258604Y415745D01*
X258506Y415767D01*
X258407Y415778D01*
X258287Y415789D01*
X258233D01*
X258189Y415778D01*
X258080Y415767D01*
X257948Y415745D01*
X257795Y415691D01*
X257631Y415625D01*
X257468Y415526D01*
X257314Y415395D01*
X257304Y415374D01*
X257260Y415319D01*
X257194Y415231D01*
X257129Y415100D01*
X257052Y414925D01*
X256997Y414718D01*
X256954Y414466D01*
X256932Y414171D01*
Y410991D01*
X256003D01*
Y414543D01*
Y414554D01*
Y414576D01*
Y414598D01*
Y414641D01*
X255992Y414761D01*
X255970Y414893D01*
X255948Y415046D01*
X255905Y415199D01*
X255850Y415341D01*
X255773Y415472D01*
X255762Y415483D01*
X255730Y415526D01*
X255675Y415570D01*
X255598Y415636D01*
X255500Y415691D01*
X255369Y415745D01*
X255216Y415778D01*
X255030Y415789D01*
X254964D01*
X254888Y415778D01*
X254801Y415767D01*
X254691Y415734D01*
X254560Y415701D01*
X254440Y415647D01*
X254309Y415581D01*
X254298Y415570D01*
X254254Y415538D01*
X254199Y415494D01*
X254123Y415428D01*
X254046Y415341D01*
X253970Y415231D01*
X253893Y415111D01*
X253828Y414969D01*
X253817Y414947D01*
X253806Y414893D01*
X253784Y414805D01*
X253751Y414685D01*
X253718Y414521D01*
X253697Y414324D01*
X253686Y414095D01*
X253675Y413832D01*
Y410991D01*
X252746D01*
Y416477D01*
X253576D01*
Y415691D01*
X253587Y415712D01*
X253620Y415756D01*
X253686Y415833D01*
X253762Y415920D01*
X253861Y416029D01*
X253981Y416139D01*
X254112Y416248D01*
X254265Y416346D01*
X254287Y416357D01*
X254342Y416390D01*
X254429Y416423D01*
X254549Y416477D01*
X254691Y416521D01*
X254855Y416554D01*
X255041Y416587D01*
X255238Y416598D01*
X255336D01*
X255456Y416587D01*
X255588Y416565D01*
X255751Y416532D01*
X255915Y416488D01*
X256079Y416423D01*
X256232Y416335D01*
X256254Y416324D01*
X256298Y416292D01*
X256364Y416237D01*
X256451Y416150D01*
X256539Y416051D01*
X256637Y415931D01*
X256724Y415789D01*
X256790Y415625D01*
X256801Y415636D01*
X256823Y415669D01*
X256855Y415712D01*
X256910Y415778D01*
X256976Y415854D01*
X257052Y415931D01*
X257140Y416018D01*
X257249Y416117D01*
X257369Y416204D01*
X257489Y416292D01*
X257631Y416368D01*
X257785Y416445D01*
X257948Y416510D01*
X258123Y416554D01*
X258298Y416587D01*
X258495Y416598D01*
X258571D01*
X258626Y416587D01*
D02*
G37*
G36*
X267436D02*
X267512D01*
X267589Y416576D01*
X267775Y416543D01*
X267971Y416488D01*
X268179Y416401D01*
X268387Y416292D01*
X268562Y416139D01*
X268583Y416117D01*
X268627Y416051D01*
X268704Y415953D01*
X268736Y415876D01*
X268780Y415800D01*
X268824Y415701D01*
X268857Y415603D01*
X268900Y415494D01*
X268933Y415363D01*
X268955Y415231D01*
X268977Y415078D01*
X268999Y414925D01*
Y414750D01*
Y410991D01*
X268070D01*
Y414433D01*
Y414444D01*
Y414455D01*
Y414521D01*
Y414619D01*
X268059Y414740D01*
X268048Y414871D01*
X268037Y415002D01*
X268015Y415133D01*
X267982Y415231D01*
Y415242D01*
X267960Y415275D01*
X267938Y415319D01*
X267906Y415374D01*
X267862Y415439D01*
X267807Y415505D01*
X267742Y415570D01*
X267654Y415636D01*
X267643Y415647D01*
X267611Y415658D01*
X267567Y415680D01*
X267490Y415712D01*
X267414Y415745D01*
X267315Y415767D01*
X267217Y415778D01*
X267097Y415789D01*
X267042D01*
X266999Y415778D01*
X266889Y415767D01*
X266758Y415745D01*
X266605Y415691D01*
X266441Y415625D01*
X266277Y415526D01*
X266124Y415395D01*
X266113Y415374D01*
X266069Y415319D01*
X266004Y415231D01*
X265938Y415100D01*
X265862Y414925D01*
X265807Y414718D01*
X265763Y414466D01*
X265741Y414171D01*
Y410991D01*
X264812D01*
Y414543D01*
Y414554D01*
Y414576D01*
Y414598D01*
Y414641D01*
X264802Y414761D01*
X264780Y414893D01*
X264758Y415046D01*
X264714Y415199D01*
X264660Y415341D01*
X264583Y415472D01*
X264572Y415483D01*
X264539Y415526D01*
X264485Y415570D01*
X264408Y415636D01*
X264310Y415691D01*
X264178Y415745D01*
X264025Y415778D01*
X263840Y415789D01*
X263774D01*
X263698Y415778D01*
X263610Y415767D01*
X263501Y415734D01*
X263370Y415701D01*
X263249Y415647D01*
X263118Y415581D01*
X263107Y415570D01*
X263064Y415538D01*
X263009Y415494D01*
X262932Y415428D01*
X262856Y415341D01*
X262779Y415231D01*
X262703Y415111D01*
X262637Y414969D01*
X262627Y414947D01*
X262615Y414893D01*
X262594Y414805D01*
X262561Y414685D01*
X262528Y414521D01*
X262506Y414324D01*
X262495Y414095D01*
X262484Y413832D01*
Y410991D01*
X261555D01*
Y416477D01*
X262386D01*
Y415691D01*
X262397Y415712D01*
X262430Y415756D01*
X262495Y415833D01*
X262572Y415920D01*
X262670Y416029D01*
X262790Y416139D01*
X262922Y416248D01*
X263075Y416346D01*
X263096Y416357D01*
X263151Y416390D01*
X263239Y416423D01*
X263359Y416477D01*
X263501Y416521D01*
X263665Y416554D01*
X263851Y416587D01*
X264047Y416598D01*
X264146D01*
X264266Y416587D01*
X264397Y416565D01*
X264561Y416532D01*
X264725Y416488D01*
X264889Y416423D01*
X265042Y416335D01*
X265064Y416324D01*
X265108Y416292D01*
X265173Y416237D01*
X265261Y416150D01*
X265348Y416051D01*
X265446Y415931D01*
X265534Y415789D01*
X265599Y415625D01*
X265610Y415636D01*
X265632Y415669D01*
X265665Y415712D01*
X265720Y415778D01*
X265785Y415854D01*
X265862Y415931D01*
X265949Y416018D01*
X266058Y416117D01*
X266179Y416204D01*
X266299Y416292D01*
X266441Y416368D01*
X266594Y416445D01*
X266758Y416510D01*
X266933Y416554D01*
X267108Y416587D01*
X267304Y416598D01*
X267381D01*
X267436Y416587D01*
D02*
G37*
G36*
X245390Y417570D02*
X242362D01*
X241958Y415526D01*
X241969Y415538D01*
X241991Y415548D01*
X242023Y415570D01*
X242078Y415603D01*
X242144Y415636D01*
X242220Y415680D01*
X242395Y415767D01*
X242614Y415854D01*
X242854Y415931D01*
X243116Y415986D01*
X243248Y416007D01*
X243488D01*
X243554Y415997D01*
X243641Y415986D01*
X243739Y415975D01*
X243849Y415953D01*
X243969Y415920D01*
X244231Y415843D01*
X244373Y415789D01*
X244515Y415712D01*
X244657Y415636D01*
X244800Y415548D01*
X244931Y415439D01*
X245062Y415319D01*
X245073Y415308D01*
X245095Y415286D01*
X245128Y415253D01*
X245171Y415199D01*
X245226Y415122D01*
X245281Y415046D01*
X245346Y414947D01*
X245412Y414838D01*
X245466Y414718D01*
X245532Y414586D01*
X245587Y414433D01*
X245641Y414281D01*
X245685Y414117D01*
X245718Y413931D01*
X245740Y413745D01*
X245751Y413548D01*
Y413537D01*
Y413505D01*
Y413450D01*
X245740Y413373D01*
X245729Y413286D01*
X245718Y413188D01*
X245696Y413067D01*
X245674Y412947D01*
X245608Y412663D01*
X245499Y412368D01*
X245434Y412215D01*
X245346Y412073D01*
X245259Y411920D01*
X245149Y411777D01*
X245139Y411767D01*
X245117Y411734D01*
X245073Y411690D01*
X245018Y411635D01*
X244942Y411570D01*
X244854Y411482D01*
X244745Y411406D01*
X244625Y411318D01*
X244494Y411231D01*
X244341Y411155D01*
X244177Y411078D01*
X244002Y411001D01*
X243816Y410947D01*
X243608Y410903D01*
X243390Y410870D01*
X243160Y410859D01*
X243062D01*
X242985Y410870D01*
X242898Y410881D01*
X242799Y410892D01*
X242679Y410903D01*
X242559Y410936D01*
X242286Y411001D01*
X242013Y411100D01*
X241870Y411166D01*
X241728Y411242D01*
X241597Y411329D01*
X241466Y411428D01*
X241455Y411439D01*
X241433Y411450D01*
X241411Y411493D01*
X241368Y411537D01*
X241313Y411592D01*
X241258Y411657D01*
X241193Y411745D01*
X241138Y411843D01*
X241073Y411941D01*
X241007Y412062D01*
X240887Y412324D01*
X240788Y412630D01*
X240756Y412794D01*
X240734Y412969D01*
X241706Y413045D01*
Y413034D01*
Y413013D01*
X241717Y412980D01*
X241728Y412925D01*
X241761Y412805D01*
X241805Y412641D01*
X241870Y412477D01*
X241958Y412291D01*
X242067Y412127D01*
X242198Y411974D01*
X242220Y411963D01*
X242264Y411920D01*
X242351Y411865D01*
X242472Y411799D01*
X242603Y411734D01*
X242767Y411679D01*
X242952Y411635D01*
X243160Y411624D01*
X243226D01*
X243269Y411635D01*
X243401Y411646D01*
X243554Y411690D01*
X243739Y411745D01*
X243925Y411832D01*
X244122Y411963D01*
X244209Y412040D01*
X244297Y412127D01*
X244308Y412138D01*
X244319Y412149D01*
X244341Y412182D01*
X244373Y412215D01*
X244450Y412335D01*
X244537Y412488D01*
X244614Y412674D01*
X244690Y412903D01*
X244745Y413177D01*
X244767Y413319D01*
Y413472D01*
Y413483D01*
Y413505D01*
Y413548D01*
X244756Y413603D01*
Y413668D01*
X244745Y413745D01*
X244712Y413920D01*
X244657Y414127D01*
X244581Y414335D01*
X244472Y414532D01*
X244319Y414718D01*
Y414729D01*
X244297Y414740D01*
X244242Y414794D01*
X244144Y414871D01*
X244013Y414958D01*
X243838Y415035D01*
X243641Y415111D01*
X243411Y415166D01*
X243280Y415188D01*
X243073D01*
X242985Y415177D01*
X242876Y415166D01*
X242745Y415133D01*
X242614Y415100D01*
X242472Y415046D01*
X242330Y414980D01*
X242319Y414969D01*
X242275Y414947D01*
X242209Y414893D01*
X242122Y414838D01*
X242034Y414761D01*
X241947Y414663D01*
X241848Y414565D01*
X241772Y414444D01*
X240898Y414565D01*
X241630Y418456D01*
X245390D01*
Y417570D01*
D02*
G37*
G36*
X230689D02*
X227661D01*
X227257Y415526D01*
X227268Y415538D01*
X227290Y415548D01*
X227323Y415570D01*
X227377Y415603D01*
X227443Y415636D01*
X227519Y415680D01*
X227694Y415767D01*
X227913Y415854D01*
X228153Y415931D01*
X228416Y415986D01*
X228547Y416007D01*
X228787D01*
X228853Y415997D01*
X228940Y415986D01*
X229039Y415975D01*
X229148Y415953D01*
X229268Y415920D01*
X229530Y415843D01*
X229673Y415789D01*
X229815Y415712D01*
X229957Y415636D01*
X230099Y415548D01*
X230230Y415439D01*
X230361Y415319D01*
X230372Y415308D01*
X230394Y415286D01*
X230427Y415253D01*
X230470Y415199D01*
X230525Y415122D01*
X230580Y415046D01*
X230645Y414947D01*
X230711Y414838D01*
X230766Y414718D01*
X230831Y414586D01*
X230886Y414433D01*
X230940Y414281D01*
X230984Y414117D01*
X231017Y413931D01*
X231039Y413745D01*
X231050Y413548D01*
Y413537D01*
Y413505D01*
Y413450D01*
X231039Y413373D01*
X231028Y413286D01*
X231017Y413188D01*
X230995Y413067D01*
X230973Y412947D01*
X230908Y412663D01*
X230798Y412368D01*
X230733Y412215D01*
X230645Y412073D01*
X230558Y411920D01*
X230449Y411777D01*
X230438Y411767D01*
X230416Y411734D01*
X230372Y411690D01*
X230317Y411635D01*
X230241Y411570D01*
X230153Y411482D01*
X230044Y411406D01*
X229924Y411318D01*
X229793Y411231D01*
X229640Y411155D01*
X229476Y411078D01*
X229301Y411001D01*
X229115Y410947D01*
X228907Y410903D01*
X228689Y410870D01*
X228459Y410859D01*
X228361D01*
X228284Y410870D01*
X228197Y410881D01*
X228099Y410892D01*
X227978Y410903D01*
X227858Y410936D01*
X227585Y411001D01*
X227312Y411100D01*
X227169Y411166D01*
X227028Y411242D01*
X226896Y411329D01*
X226765Y411428D01*
X226754Y411439D01*
X226732Y411450D01*
X226711Y411493D01*
X226667Y411537D01*
X226612Y411592D01*
X226557Y411657D01*
X226492Y411745D01*
X226437Y411843D01*
X226372Y411941D01*
X226306Y412062D01*
X226186Y412324D01*
X226087Y412630D01*
X226055Y412794D01*
X226033Y412969D01*
X227006Y413045D01*
Y413034D01*
Y413013D01*
X227016Y412980D01*
X227028Y412925D01*
X227060Y412805D01*
X227104Y412641D01*
X227169Y412477D01*
X227257Y412291D01*
X227366Y412127D01*
X227497Y411974D01*
X227519Y411963D01*
X227563Y411920D01*
X227650Y411865D01*
X227771Y411799D01*
X227902Y411734D01*
X228066Y411679D01*
X228252Y411635D01*
X228459Y411624D01*
X228525D01*
X228569Y411635D01*
X228700Y411646D01*
X228853Y411690D01*
X229039Y411745D01*
X229224Y411832D01*
X229421Y411963D01*
X229509Y412040D01*
X229596Y412127D01*
X229607Y412138D01*
X229618Y412149D01*
X229640Y412182D01*
X229673Y412215D01*
X229749Y412335D01*
X229837Y412488D01*
X229913Y412674D01*
X229990Y412903D01*
X230044Y413177D01*
X230066Y413319D01*
Y413472D01*
Y413483D01*
Y413505D01*
Y413548D01*
X230055Y413603D01*
Y413668D01*
X230044Y413745D01*
X230011Y413920D01*
X229957Y414127D01*
X229880Y414335D01*
X229771Y414532D01*
X229618Y414718D01*
Y414729D01*
X229596Y414740D01*
X229541Y414794D01*
X229443Y414871D01*
X229312Y414958D01*
X229137Y415035D01*
X228940Y415111D01*
X228711Y415166D01*
X228579Y415188D01*
X228372D01*
X228284Y415177D01*
X228175Y415166D01*
X228044Y415133D01*
X227913Y415100D01*
X227771Y415046D01*
X227629Y414980D01*
X227618Y414969D01*
X227574Y414947D01*
X227508Y414893D01*
X227421Y414838D01*
X227333Y414761D01*
X227246Y414663D01*
X227148Y414565D01*
X227071Y414444D01*
X226197Y414565D01*
X226929Y418456D01*
X230689D01*
Y417570D01*
D02*
G37*
G36*
X234744Y418576D02*
X234821D01*
X234908Y418565D01*
X235116Y418521D01*
X235345Y418467D01*
X235586Y418379D01*
X235826Y418248D01*
X235946Y418172D01*
X236056Y418084D01*
X236067Y418073D01*
X236077Y418062D01*
X236110Y418029D01*
X236143Y417997D01*
X236198Y417942D01*
X236241Y417876D01*
X236362Y417724D01*
X236482Y417527D01*
X236591Y417286D01*
X236690Y417013D01*
X236755Y416707D01*
X235826Y416631D01*
Y416641D01*
X235815Y416652D01*
X235804Y416718D01*
X235771Y416816D01*
X235728Y416936D01*
X235684Y417068D01*
X235618Y417199D01*
X235542Y417319D01*
X235465Y417417D01*
X235444Y417439D01*
X235400Y417483D01*
X235323Y417549D01*
X235214Y417625D01*
X235072Y417691D01*
X234919Y417756D01*
X234733Y417800D01*
X234536Y417822D01*
X234460D01*
X234372Y417811D01*
X234274Y417789D01*
X234143Y417756D01*
X234012Y417712D01*
X233881Y417658D01*
X233749Y417570D01*
X233728Y417559D01*
X233673Y417516D01*
X233596Y417439D01*
X233498Y417330D01*
X233389Y417199D01*
X233268Y417046D01*
X233159Y416849D01*
X233050Y416631D01*
Y416619D01*
X233039Y416598D01*
X233028Y416565D01*
X233006Y416521D01*
X232995Y416456D01*
X232973Y416379D01*
X232951Y416292D01*
X232930Y416182D01*
X232897Y416062D01*
X232875Y415931D01*
X232853Y415789D01*
X232842Y415636D01*
X232820Y415461D01*
X232809Y415286D01*
X232799Y415089D01*
Y414893D01*
X232809Y414903D01*
X232853Y414969D01*
X232930Y415057D01*
X233028Y415166D01*
X233137Y415297D01*
X233279Y415417D01*
X233432Y415538D01*
X233607Y415647D01*
X233618D01*
X233629Y415658D01*
X233695Y415691D01*
X233793Y415723D01*
X233924Y415778D01*
X234077Y415822D01*
X234252Y415854D01*
X234438Y415887D01*
X234635Y415898D01*
X234722D01*
X234788Y415887D01*
X234875Y415876D01*
X234963Y415865D01*
X235072Y415843D01*
X235181Y415811D01*
X235433Y415734D01*
X235564Y415680D01*
X235695Y415603D01*
X235826Y415526D01*
X235968Y415439D01*
X236099Y415330D01*
X236220Y415210D01*
X236230Y415199D01*
X236252Y415177D01*
X236285Y415144D01*
X236318Y415089D01*
X236373Y415013D01*
X236427Y414936D01*
X236482Y414838D01*
X236547Y414729D01*
X236613Y414608D01*
X236668Y414477D01*
X236722Y414324D01*
X236777Y414171D01*
X236810Y414007D01*
X236843Y413822D01*
X236864Y413636D01*
X236875Y413439D01*
Y413428D01*
Y413406D01*
Y413373D01*
Y413319D01*
X236864Y413253D01*
Y413188D01*
X236832Y413013D01*
X236799Y412805D01*
X236744Y412586D01*
X236668Y412346D01*
X236558Y412116D01*
Y412105D01*
X236547Y412094D01*
X236526Y412062D01*
X236504Y412018D01*
X236438Y411909D01*
X236340Y411767D01*
X236220Y411614D01*
X236077Y411461D01*
X235903Y411307D01*
X235717Y411176D01*
X235706D01*
X235695Y411166D01*
X235662Y411144D01*
X235618Y411133D01*
X235509Y411078D01*
X235367Y411023D01*
X235181Y410958D01*
X234974Y410914D01*
X234744Y410870D01*
X234493Y410859D01*
X234438D01*
X234383Y410870D01*
X234296D01*
X234197Y410881D01*
X234088Y410903D01*
X233957Y410936D01*
X233826Y410969D01*
X233673Y411012D01*
X233520Y411067D01*
X233367Y411133D01*
X233203Y411220D01*
X233050Y411318D01*
X232897Y411428D01*
X232744Y411559D01*
X232602Y411712D01*
X232591Y411723D01*
X232569Y411756D01*
X232536Y411799D01*
X232492Y411876D01*
X232427Y411974D01*
X232372Y412084D01*
X232307Y412226D01*
X232241Y412379D01*
X232165Y412565D01*
X232099Y412772D01*
X232044Y413002D01*
X231990Y413253D01*
X231935Y413537D01*
X231902Y413843D01*
X231880Y414171D01*
X231870Y414521D01*
Y414532D01*
Y414543D01*
Y414576D01*
Y414619D01*
X231880Y414729D01*
Y414882D01*
X231891Y415057D01*
X231913Y415264D01*
X231935Y415494D01*
X231968Y415745D01*
X232012Y415997D01*
X232066Y416270D01*
X232132Y416532D01*
X232208Y416794D01*
X232307Y417046D01*
X232416Y417286D01*
X232536Y417516D01*
X232678Y417712D01*
X232689Y417724D01*
X232711Y417745D01*
X232755Y417789D01*
X232809Y417855D01*
X232875Y417920D01*
X232962Y417986D01*
X233072Y418073D01*
X233181Y418150D01*
X233312Y418226D01*
X233454Y418314D01*
X233618Y418379D01*
X233782Y418456D01*
X233968Y418510D01*
X234165Y418554D01*
X234372Y418576D01*
X234591Y418587D01*
X234679D01*
X234744Y418576D01*
D02*
G37*
G36*
X114186Y253673D02*
X114273Y253662D01*
X114372Y253651D01*
X114492Y253629D01*
X114612Y253608D01*
X114896Y253542D01*
X115191Y253433D01*
X115344Y253367D01*
X115486Y253280D01*
X115639Y253192D01*
X115781Y253083D01*
X115792Y253072D01*
X115825Y253050D01*
X115869Y253007D01*
X115924Y252952D01*
X115989Y252875D01*
X116077Y252788D01*
X116153Y252679D01*
X116241Y252558D01*
X116328Y252427D01*
X116404Y252274D01*
X116481Y252110D01*
X116558Y251935D01*
X116612Y251750D01*
X116656Y251542D01*
X116689Y251323D01*
X116700Y251094D01*
Y251083D01*
Y251050D01*
Y250995D01*
X116689Y250919D01*
X116678Y250832D01*
X116667Y250733D01*
X116656Y250613D01*
X116623Y250493D01*
X116558Y250219D01*
X116459Y249946D01*
X116394Y249804D01*
X116317Y249662D01*
X116230Y249531D01*
X116131Y249400D01*
X116120Y249389D01*
X116109Y249367D01*
X116066Y249345D01*
X116022Y249301D01*
X115967Y249247D01*
X115902Y249192D01*
X115814Y249126D01*
X115716Y249072D01*
X115618Y249006D01*
X115497Y248941D01*
X115235Y248820D01*
X114929Y248722D01*
X114765Y248689D01*
X114590Y248667D01*
X114514Y249640D01*
X114546D01*
X114579Y249651D01*
X114634Y249662D01*
X114754Y249695D01*
X114918Y249739D01*
X115082Y249804D01*
X115268Y249891D01*
X115432Y250001D01*
X115585Y250132D01*
X115596Y250154D01*
X115639Y250198D01*
X115694Y250285D01*
X115760Y250405D01*
X115825Y250536D01*
X115880Y250700D01*
X115924Y250886D01*
X115935Y251094D01*
Y251105D01*
Y251127D01*
Y251159D01*
X115924Y251203D01*
X115913Y251334D01*
X115869Y251487D01*
X115814Y251673D01*
X115727Y251859D01*
X115596Y252056D01*
X115519Y252143D01*
X115432Y252231D01*
X115421Y252241D01*
X115410Y252252D01*
X115377Y252274D01*
X115344Y252307D01*
X115224Y252383D01*
X115071Y252471D01*
X114885Y252548D01*
X114656Y252624D01*
X114383Y252679D01*
X114240Y252700D01*
X114011D01*
X113956Y252690D01*
X113891D01*
X113814Y252679D01*
X113639Y252646D01*
X113432Y252591D01*
X113224Y252515D01*
X113027Y252405D01*
X112841Y252252D01*
X112830D01*
X112820Y252231D01*
X112765Y252176D01*
X112688Y252078D01*
X112601Y251946D01*
X112524Y251771D01*
X112448Y251575D01*
X112393Y251345D01*
X112371Y251214D01*
Y251083D01*
Y251061D01*
Y251006D01*
X112382Y250919D01*
X112393Y250810D01*
X112426Y250678D01*
X112459Y250547D01*
X112513Y250405D01*
X112579Y250263D01*
X112590Y250252D01*
X112612Y250208D01*
X112666Y250143D01*
X112721Y250055D01*
X112798Y249968D01*
X112896Y249881D01*
X112994Y249782D01*
X113115Y249706D01*
X112994Y248831D01*
X109103Y249564D01*
Y253324D01*
X109989D01*
Y250296D01*
X112032Y249891D01*
X112022Y249902D01*
X112011Y249924D01*
X111989Y249957D01*
X111956Y250012D01*
X111923Y250077D01*
X111880Y250154D01*
X111792Y250329D01*
X111705Y250547D01*
X111628Y250788D01*
X111574Y251050D01*
X111552Y251181D01*
Y251323D01*
Y251334D01*
Y251367D01*
Y251422D01*
X111563Y251487D01*
X111574Y251575D01*
X111584Y251673D01*
X111606Y251782D01*
X111639Y251903D01*
X111716Y252165D01*
X111770Y252307D01*
X111847Y252449D01*
X111923Y252591D01*
X112011Y252733D01*
X112120Y252864D01*
X112240Y252996D01*
X112251Y253007D01*
X112273Y253028D01*
X112306Y253061D01*
X112360Y253105D01*
X112437Y253159D01*
X112513Y253214D01*
X112612Y253280D01*
X112721Y253345D01*
X112841Y253400D01*
X112972Y253466D01*
X113126Y253520D01*
X113278Y253575D01*
X113443Y253619D01*
X113628Y253651D01*
X113814Y253673D01*
X114011Y253684D01*
X114109D01*
X114186Y253673D01*
D02*
G37*
G36*
X116569Y255072D02*
X115508D01*
Y256133D01*
X116569D01*
Y255072D01*
D02*
G37*
G36*
X114306Y247738D02*
X114372D01*
X114546Y247706D01*
X114754Y247673D01*
X114973Y247618D01*
X115213Y247541D01*
X115443Y247432D01*
X115454D01*
X115464Y247421D01*
X115497Y247399D01*
X115541Y247378D01*
X115650Y247312D01*
X115792Y247214D01*
X115945Y247093D01*
X116098Y246951D01*
X116252Y246776D01*
X116383Y246591D01*
Y246580D01*
X116394Y246569D01*
X116416Y246536D01*
X116426Y246492D01*
X116481Y246383D01*
X116536Y246241D01*
X116601Y246055D01*
X116645Y245847D01*
X116689Y245618D01*
X116700Y245367D01*
Y245356D01*
Y245312D01*
X116689Y245257D01*
Y245170D01*
X116678Y245071D01*
X116656Y244962D01*
X116623Y244831D01*
X116590Y244700D01*
X116547Y244547D01*
X116492Y244394D01*
X116426Y244241D01*
X116339Y244077D01*
X116241Y243924D01*
X116131Y243771D01*
X116000Y243618D01*
X115847Y243476D01*
X115836Y243465D01*
X115803Y243443D01*
X115760Y243410D01*
X115683Y243366D01*
X115585Y243301D01*
X115475Y243246D01*
X115333Y243180D01*
X115180Y243115D01*
X114995Y243038D01*
X114787Y242973D01*
X114557Y242918D01*
X114306Y242863D01*
X114022Y242809D01*
X113716Y242776D01*
X113388Y242754D01*
X113038Y242743D01*
X112940D01*
X112830Y242754D01*
X112677D01*
X112503Y242765D01*
X112295Y242787D01*
X112065Y242809D01*
X111814Y242842D01*
X111563Y242885D01*
X111289Y242940D01*
X111027Y243006D01*
X110765Y243082D01*
X110513Y243180D01*
X110273Y243290D01*
X110043Y243410D01*
X109846Y243552D01*
X109836Y243563D01*
X109814Y243585D01*
X109770Y243629D01*
X109704Y243683D01*
X109639Y243749D01*
X109573Y243836D01*
X109486Y243946D01*
X109409Y244055D01*
X109333Y244186D01*
X109245Y244328D01*
X109180Y244492D01*
X109103Y244656D01*
X109049Y244842D01*
X109005Y245039D01*
X108983Y245246D01*
X108972Y245465D01*
Y245476D01*
Y245509D01*
Y245552D01*
X108983Y245618D01*
Y245694D01*
X108994Y245782D01*
X109038Y245989D01*
X109092Y246219D01*
X109180Y246460D01*
X109311Y246700D01*
X109388Y246820D01*
X109475Y246929D01*
X109486Y246940D01*
X109497Y246951D01*
X109529Y246984D01*
X109562Y247017D01*
X109617Y247072D01*
X109683Y247115D01*
X109836Y247235D01*
X110032Y247356D01*
X110273Y247465D01*
X110546Y247563D01*
X110852Y247629D01*
X110929Y246700D01*
X110918D01*
X110907Y246689D01*
X110841Y246678D01*
X110743Y246645D01*
X110623Y246602D01*
X110491Y246558D01*
X110360Y246492D01*
X110240Y246416D01*
X110142Y246339D01*
X110120Y246317D01*
X110076Y246274D01*
X110011Y246197D01*
X109934Y246088D01*
X109868Y245946D01*
X109803Y245793D01*
X109759Y245607D01*
X109737Y245410D01*
Y245388D01*
Y245334D01*
X109748Y245246D01*
X109770Y245148D01*
X109803Y245017D01*
X109846Y244885D01*
X109901Y244754D01*
X109989Y244623D01*
X110000Y244601D01*
X110043Y244547D01*
X110120Y244470D01*
X110229Y244372D01*
X110360Y244263D01*
X110513Y244142D01*
X110710Y244033D01*
X110929Y243924D01*
X110940D01*
X110961Y243913D01*
X110994Y243902D01*
X111038Y243880D01*
X111103Y243869D01*
X111180Y243847D01*
X111267Y243825D01*
X111377Y243804D01*
X111497Y243771D01*
X111628Y243749D01*
X111770Y243727D01*
X111923Y243716D01*
X112098Y243694D01*
X112273Y243683D01*
X112470Y243672D01*
X112666D01*
X112655Y243683D01*
X112590Y243727D01*
X112503Y243804D01*
X112393Y243902D01*
X112262Y244011D01*
X112142Y244153D01*
X112022Y244306D01*
X111912Y244481D01*
Y244492D01*
X111901Y244503D01*
X111869Y244569D01*
X111836Y244667D01*
X111781Y244798D01*
X111737Y244951D01*
X111705Y245126D01*
X111672Y245312D01*
X111661Y245509D01*
Y245519D01*
Y245552D01*
Y245596D01*
X111672Y245662D01*
X111683Y245749D01*
X111694Y245836D01*
X111716Y245946D01*
X111748Y246055D01*
X111825Y246306D01*
X111880Y246438D01*
X111956Y246569D01*
X112032Y246700D01*
X112120Y246842D01*
X112229Y246973D01*
X112349Y247093D01*
X112360Y247104D01*
X112382Y247126D01*
X112415Y247159D01*
X112470Y247192D01*
X112546Y247246D01*
X112623Y247301D01*
X112721Y247356D01*
X112830Y247421D01*
X112951Y247487D01*
X113082Y247541D01*
X113235Y247596D01*
X113388Y247651D01*
X113552Y247684D01*
X113738Y247716D01*
X113923Y247738D01*
X114120Y247749D01*
X114240D01*
X114306Y247738D01*
D02*
G37*
G36*
X239378Y410991D02*
X238318D01*
Y412051D01*
X239378D01*
Y410991D01*
D02*
G37*
G36*
X239537Y399180D02*
X238477D01*
Y400240D01*
X239537D01*
Y399180D01*
D02*
G37*
G36*
X128379Y255050D02*
X127319D01*
Y256111D01*
X128379D01*
Y255050D01*
D02*
G37*
G36*
X124991Y262395D02*
X125122D01*
X125265Y262385D01*
X125417Y262373D01*
X125767Y262341D01*
X126128Y262286D01*
X126478Y262221D01*
X126642Y262177D01*
X126806Y262122D01*
X126816D01*
X126838Y262111D01*
X126882Y262089D01*
X126937Y262068D01*
X127013Y262046D01*
X127090Y262002D01*
X127276Y261914D01*
X127472Y261805D01*
X127691Y261663D01*
X127888Y261499D01*
X128074Y261302D01*
Y261292D01*
X128095Y261280D01*
X128117Y261248D01*
X128139Y261204D01*
X128172Y261149D01*
X128216Y261095D01*
X128292Y260931D01*
X128369Y260734D01*
X128445Y260505D01*
X128489Y260231D01*
X128511Y259936D01*
Y259925D01*
Y259892D01*
Y259827D01*
X128500Y259750D01*
X128489Y259663D01*
X128467Y259554D01*
X128445Y259433D01*
X128412Y259302D01*
X128369Y259171D01*
X128325Y259029D01*
X128259Y258887D01*
X128183Y258745D01*
X128095Y258603D01*
X127986Y258461D01*
X127866Y258329D01*
X127735Y258209D01*
X127724Y258198D01*
X127691Y258176D01*
X127636Y258144D01*
X127549Y258089D01*
X127451Y258034D01*
X127319Y257980D01*
X127166Y257903D01*
X126991Y257838D01*
X126795Y257772D01*
X126565Y257706D01*
X126314Y257641D01*
X126030Y257586D01*
X125724Y257532D01*
X125396Y257499D01*
X125035Y257477D01*
X124652Y257466D01*
X124434D01*
X124313Y257477D01*
X124182D01*
X124040Y257488D01*
X123876Y257499D01*
X123538Y257532D01*
X123177Y257586D01*
X122816Y257652D01*
X122652Y257696D01*
X122488Y257739D01*
X122477D01*
X122455Y257750D01*
X122412Y257772D01*
X122357Y257794D01*
X122281Y257816D01*
X122204Y257859D01*
X122018Y257947D01*
X121821Y258056D01*
X121614Y258198D01*
X121406Y258362D01*
X121231Y258559D01*
Y258570D01*
X121209Y258581D01*
X121188Y258614D01*
X121166Y258657D01*
X121122Y258712D01*
X121089Y258778D01*
X121002Y258942D01*
X120925Y259138D01*
X120849Y259368D01*
X120805Y259641D01*
X120783Y259936D01*
Y259947D01*
Y259958D01*
Y259991D01*
Y260034D01*
X120794Y260155D01*
X120816Y260297D01*
X120849Y260461D01*
X120893Y260636D01*
X120947Y260822D01*
X121035Y260996D01*
Y261007D01*
X121045Y261018D01*
X121078Y261073D01*
X121133Y261160D01*
X121209Y261270D01*
X121319Y261390D01*
X121439Y261521D01*
X121581Y261641D01*
X121745Y261761D01*
X121767Y261772D01*
X121821Y261816D01*
X121920Y261860D01*
X122062Y261936D01*
X122226Y262002D01*
X122412Y262089D01*
X122630Y262166D01*
X122871Y262231D01*
X122882D01*
X122904Y262242D01*
X122936Y262253D01*
X122991Y262264D01*
X123057Y262275D01*
X123133Y262286D01*
X123231Y262308D01*
X123341Y262319D01*
X123461Y262341D01*
X123592Y262352D01*
X123745Y262363D01*
X123898Y262385D01*
X124073Y262395D01*
X124248D01*
X124445Y262406D01*
X124871D01*
X124991Y262395D01*
D02*
G37*
G36*
X376411Y314100D02*
X375351D01*
Y315160D01*
X376411D01*
Y314100D01*
D02*
G37*
G36*
X126390Y253608D02*
X126467Y253597D01*
X126565Y253586D01*
X126674Y253564D01*
X126795Y253531D01*
X127046Y253455D01*
X127188Y253400D01*
X127319Y253324D01*
X127461Y253247D01*
X127593Y253159D01*
X127724Y253050D01*
X127855Y252930D01*
X127866Y252919D01*
X127888Y252897D01*
X127920Y252864D01*
X127953Y252810D01*
X128008Y252733D01*
X128062Y252657D01*
X128117Y252558D01*
X128183Y252449D01*
X128248Y252329D01*
X128303Y252187D01*
X128358Y252034D01*
X128412Y251881D01*
X128445Y251706D01*
X128478Y251520D01*
X128500Y251334D01*
X128511Y251127D01*
Y251116D01*
Y251072D01*
Y251017D01*
X128500Y250941D01*
X128489Y250842D01*
X128478Y250733D01*
X128456Y250613D01*
X128423Y250482D01*
X128347Y250187D01*
X128292Y250034D01*
X128237Y249891D01*
X128161Y249739D01*
X128074Y249585D01*
X127975Y249443D01*
X127855Y249312D01*
X127844Y249301D01*
X127822Y249279D01*
X127789Y249247D01*
X127735Y249203D01*
X127669Y249159D01*
X127593Y249094D01*
X127505Y249039D01*
X127396Y248973D01*
X127287Y248908D01*
X127155Y248853D01*
X126882Y248744D01*
X126718Y248700D01*
X126554Y248667D01*
X126379Y248645D01*
X126204Y248635D01*
X126128D01*
X126084Y248645D01*
X126019D01*
X125942Y248656D01*
X125767Y248678D01*
X125570Y248722D01*
X125374Y248788D01*
X125166Y248886D01*
X124969Y249006D01*
X124958D01*
X124948Y249028D01*
X124893Y249072D01*
X124805Y249159D01*
X124696Y249279D01*
X124587Y249432D01*
X124467Y249618D01*
X124368Y249826D01*
X124292Y250077D01*
Y250066D01*
X124281Y250055D01*
X124270Y250023D01*
X124248Y249979D01*
X124204Y249881D01*
X124139Y249749D01*
X124051Y249607D01*
X123942Y249465D01*
X123822Y249334D01*
X123690Y249214D01*
X123669Y249203D01*
X123625Y249170D01*
X123538Y249126D01*
X123428Y249083D01*
X123286Y249028D01*
X123122Y248984D01*
X122936Y248952D01*
X122740Y248941D01*
X122663D01*
X122598Y248952D01*
X122532Y248962D01*
X122444Y248973D01*
X122259Y249017D01*
X122040Y249083D01*
X121811Y249192D01*
X121690Y249257D01*
X121570Y249334D01*
X121461Y249432D01*
X121352Y249531D01*
X121341Y249542D01*
X121330Y249564D01*
X121297Y249596D01*
X121264Y249640D01*
X121220Y249695D01*
X121177Y249771D01*
X121122Y249859D01*
X121067Y249946D01*
X121013Y250055D01*
X120958Y250176D01*
X120914Y250307D01*
X120871Y250449D01*
X120805Y250755D01*
X120794Y250930D01*
X120783Y251105D01*
Y251116D01*
Y251148D01*
Y251203D01*
X120794Y251269D01*
X120805Y251356D01*
X120816Y251454D01*
X120827Y251564D01*
X120860Y251673D01*
X120925Y251935D01*
X121024Y252198D01*
X121089Y252329D01*
X121166Y252460D01*
X121264Y252580D01*
X121362Y252700D01*
X121373Y252711D01*
X121384Y252722D01*
X121417Y252755D01*
X121461Y252799D01*
X121526Y252843D01*
X121592Y252897D01*
X121756Y253007D01*
X121964Y253116D01*
X122204Y253214D01*
X122477Y253291D01*
X122619Y253302D01*
X122772Y253313D01*
X122860D01*
X122958Y253302D01*
X123078Y253280D01*
X123231Y253247D01*
X123384Y253192D01*
X123538Y253127D01*
X123690Y253028D01*
X123712Y253017D01*
X123756Y252974D01*
X123822Y252908D01*
X123909Y252821D01*
X124007Y252700D01*
X124106Y252558D01*
X124204Y252395D01*
X124292Y252198D01*
Y252209D01*
X124303Y252231D01*
X124313Y252263D01*
X124335Y252307D01*
X124390Y252438D01*
X124467Y252591D01*
X124576Y252755D01*
X124696Y252930D01*
X124849Y253094D01*
X125024Y253247D01*
X125035D01*
X125046Y253258D01*
X125111Y253302D01*
X125221Y253367D01*
X125363Y253433D01*
X125538Y253498D01*
X125745Y253564D01*
X125975Y253608D01*
X126226Y253619D01*
X126325D01*
X126390Y253608D01*
D02*
G37*
G36*
X374028Y312701D02*
X374116Y312690D01*
X374214Y312679D01*
X374334Y312657D01*
X374454Y312635D01*
X374739Y312570D01*
X375034Y312460D01*
X375187Y312395D01*
X375329Y312307D01*
X375482Y312220D01*
X375624Y312111D01*
X375635Y312100D01*
X375668Y312078D01*
X375711Y312034D01*
X375766Y311979D01*
X375832Y311903D01*
X375919Y311816D01*
X375996Y311706D01*
X376083Y311586D01*
X376170Y311455D01*
X376247Y311302D01*
X376324Y311138D01*
X376400Y310963D01*
X376455Y310777D01*
X376498Y310570D01*
X376531Y310351D01*
X376542Y310121D01*
Y310110D01*
Y310078D01*
Y310023D01*
X376531Y309946D01*
X376520Y309859D01*
X376509Y309761D01*
X376498Y309640D01*
X376466Y309520D01*
X376400Y309247D01*
X376302Y308974D01*
X376236Y308832D01*
X376160Y308689D01*
X376072Y308558D01*
X375974Y308427D01*
X375963Y308416D01*
X375952Y308394D01*
X375908Y308372D01*
X375865Y308329D01*
X375810Y308274D01*
X375744Y308220D01*
X375657Y308154D01*
X375558Y308099D01*
X375460Y308034D01*
X375340Y307968D01*
X375078Y307848D01*
X374771Y307750D01*
X374607Y307717D01*
X374433Y307695D01*
X374356Y308668D01*
X374389D01*
X374422Y308679D01*
X374476Y308689D01*
X374597Y308722D01*
X374761Y308766D01*
X374924Y308832D01*
X375110Y308919D01*
X375274Y309028D01*
X375427Y309159D01*
X375438Y309181D01*
X375482Y309225D01*
X375537Y309313D01*
X375602Y309433D01*
X375668Y309564D01*
X375722Y309728D01*
X375766Y309914D01*
X375777Y310121D01*
Y310132D01*
Y310154D01*
Y310187D01*
X375766Y310231D01*
X375755Y310362D01*
X375711Y310515D01*
X375657Y310701D01*
X375569Y310886D01*
X375438Y311083D01*
X375362Y311171D01*
X375274Y311258D01*
X375263Y311269D01*
X375252Y311280D01*
X375220Y311302D01*
X375187Y311335D01*
X375067Y311411D01*
X374914Y311498D01*
X374728Y311575D01*
X374498Y311651D01*
X374225Y311706D01*
X374083Y311728D01*
X373853D01*
X373799Y311717D01*
X373733D01*
X373657Y311706D01*
X373482Y311673D01*
X373274Y311619D01*
X373066Y311542D01*
X372870Y311433D01*
X372684Y311280D01*
X372673D01*
X372662Y311258D01*
X372607Y311203D01*
X372531Y311105D01*
X372443Y310974D01*
X372367Y310799D01*
X372290Y310602D01*
X372236Y310373D01*
X372214Y310242D01*
Y310110D01*
Y310088D01*
Y310034D01*
X372225Y309946D01*
X372236Y309837D01*
X372269Y309706D01*
X372301Y309575D01*
X372356Y309433D01*
X372422Y309291D01*
X372432Y309280D01*
X372454Y309236D01*
X372509Y309170D01*
X372564Y309083D01*
X372640Y308996D01*
X372739Y308908D01*
X372837Y308810D01*
X372957Y308733D01*
X372837Y307859D01*
X368946Y308591D01*
Y312351D01*
X369831D01*
Y309324D01*
X371875Y308919D01*
X371864Y308930D01*
X371853Y308952D01*
X371831Y308985D01*
X371798Y309039D01*
X371766Y309105D01*
X371722Y309181D01*
X371635Y309356D01*
X371547Y309575D01*
X371471Y309815D01*
X371416Y310078D01*
X371394Y310209D01*
Y310351D01*
Y310362D01*
Y310395D01*
Y310449D01*
X371405Y310515D01*
X371416Y310602D01*
X371427Y310701D01*
X371449Y310810D01*
X371482Y310930D01*
X371558Y311192D01*
X371613Y311335D01*
X371689Y311477D01*
X371766Y311619D01*
X371853Y311761D01*
X371962Y311892D01*
X372083Y312023D01*
X372094Y312034D01*
X372115Y312056D01*
X372148Y312089D01*
X372203Y312133D01*
X372279Y312187D01*
X372356Y312242D01*
X372454Y312307D01*
X372564Y312373D01*
X372684Y312428D01*
X372815Y312493D01*
X372968Y312548D01*
X373121Y312602D01*
X373285Y312646D01*
X373471Y312679D01*
X373657Y312701D01*
X373853Y312712D01*
X373952D01*
X374028Y312701D01*
D02*
G37*
G36*
X128379Y275992D02*
X124751D01*
X124630Y275981D01*
X124499Y275971D01*
X124368Y275959D01*
X124237Y275938D01*
X124139Y275905D01*
X124128D01*
X124095Y275883D01*
X124051Y275861D01*
X123997Y275828D01*
X123931Y275785D01*
X123865Y275730D01*
X123800Y275664D01*
X123734Y275577D01*
X123723Y275566D01*
X123712Y275533D01*
X123690Y275489D01*
X123658Y275413D01*
X123625Y275337D01*
X123603Y275238D01*
X123592Y275140D01*
X123581Y275020D01*
Y275009D01*
Y274998D01*
Y274965D01*
X123592Y274921D01*
X123603Y274812D01*
X123625Y274681D01*
X123680Y274528D01*
X123745Y274364D01*
X123844Y274200D01*
X123975Y274047D01*
X123997Y274036D01*
X124051Y273992D01*
X124139Y273926D01*
X124270Y273861D01*
X124445Y273784D01*
X124652Y273730D01*
X124904Y273686D01*
X125199Y273664D01*
X128379D01*
Y272735D01*
X124729D01*
X124609Y272724D01*
X124478Y272702D01*
X124325Y272680D01*
X124171Y272637D01*
X124029Y272582D01*
X123898Y272506D01*
X123887Y272495D01*
X123844Y272462D01*
X123800Y272407D01*
X123734Y272331D01*
X123680Y272232D01*
X123625Y272101D01*
X123592Y271948D01*
X123581Y271762D01*
Y271741D01*
Y271697D01*
X123592Y271620D01*
X123603Y271533D01*
X123636Y271424D01*
X123669Y271292D01*
X123723Y271172D01*
X123789Y271041D01*
X123800Y271030D01*
X123833Y270986D01*
X123876Y270932D01*
X123942Y270855D01*
X124029Y270779D01*
X124139Y270702D01*
X124259Y270626D01*
X124401Y270560D01*
X124423Y270549D01*
X124478Y270538D01*
X124565Y270516D01*
X124685Y270484D01*
X124849Y270451D01*
X125046Y270429D01*
X125275Y270418D01*
X125538Y270407D01*
X128379D01*
Y269478D01*
X122893D01*
Y270309D01*
X123680D01*
X123658Y270320D01*
X123614Y270352D01*
X123538Y270418D01*
X123450Y270495D01*
X123341Y270593D01*
X123231Y270713D01*
X123122Y270844D01*
X123024Y270997D01*
X123013Y271019D01*
X122980Y271074D01*
X122947Y271161D01*
X122893Y271282D01*
X122849Y271424D01*
X122816Y271587D01*
X122783Y271773D01*
X122772Y271970D01*
Y271981D01*
Y272003D01*
Y272025D01*
Y272068D01*
X122783Y272189D01*
X122805Y272320D01*
X122838Y272484D01*
X122882Y272648D01*
X122947Y272812D01*
X123035Y272965D01*
X123046Y272987D01*
X123078Y273030D01*
X123133Y273096D01*
X123221Y273183D01*
X123319Y273271D01*
X123439Y273369D01*
X123581Y273457D01*
X123745Y273522D01*
X123734Y273533D01*
X123702Y273555D01*
X123658Y273588D01*
X123592Y273642D01*
X123516Y273708D01*
X123439Y273784D01*
X123352Y273872D01*
X123253Y273981D01*
X123166Y274101D01*
X123078Y274222D01*
X123002Y274364D01*
X122925Y274517D01*
X122860Y274681D01*
X122816Y274856D01*
X122783Y275030D01*
X122772Y275227D01*
Y275238D01*
Y275260D01*
Y275304D01*
X122783Y275358D01*
Y275435D01*
X122794Y275511D01*
X122827Y275697D01*
X122882Y275894D01*
X122969Y276102D01*
X123078Y276309D01*
X123231Y276484D01*
X123253Y276506D01*
X123319Y276550D01*
X123417Y276626D01*
X123494Y276659D01*
X123570Y276703D01*
X123669Y276747D01*
X123767Y276779D01*
X123876Y276823D01*
X124007Y276856D01*
X124139Y276878D01*
X124292Y276900D01*
X124445Y276921D01*
X128379D01*
Y275992D01*
D02*
G37*
G36*
Y284802D02*
X124751D01*
X124630Y284791D01*
X124499Y284780D01*
X124368Y284769D01*
X124237Y284747D01*
X124139Y284715D01*
X124128D01*
X124095Y284693D01*
X124051Y284671D01*
X123997Y284638D01*
X123931Y284594D01*
X123865Y284540D01*
X123800Y284474D01*
X123734Y284387D01*
X123723Y284376D01*
X123712Y284343D01*
X123690Y284299D01*
X123658Y284223D01*
X123625Y284146D01*
X123603Y284048D01*
X123592Y283949D01*
X123581Y283829D01*
Y283818D01*
Y283807D01*
Y283774D01*
X123592Y283731D01*
X123603Y283622D01*
X123625Y283490D01*
X123680Y283337D01*
X123745Y283173D01*
X123844Y283009D01*
X123975Y282856D01*
X123997Y282845D01*
X124051Y282802D01*
X124139Y282736D01*
X124270Y282671D01*
X124445Y282594D01*
X124652Y282539D01*
X124904Y282496D01*
X125199Y282474D01*
X128379D01*
Y281545D01*
X124729D01*
X124609Y281534D01*
X124478Y281512D01*
X124325Y281490D01*
X124171Y281446D01*
X124029Y281392D01*
X123898Y281315D01*
X123887Y281304D01*
X123844Y281272D01*
X123800Y281217D01*
X123734Y281140D01*
X123680Y281042D01*
X123625Y280911D01*
X123592Y280758D01*
X123581Y280572D01*
Y280550D01*
Y280506D01*
X123592Y280430D01*
X123603Y280343D01*
X123636Y280233D01*
X123669Y280102D01*
X123723Y279982D01*
X123789Y279851D01*
X123800Y279840D01*
X123833Y279796D01*
X123876Y279741D01*
X123942Y279665D01*
X124029Y279588D01*
X124139Y279512D01*
X124259Y279435D01*
X124401Y279370D01*
X124423Y279359D01*
X124478Y279348D01*
X124565Y279326D01*
X124685Y279293D01*
X124849Y279260D01*
X125046Y279239D01*
X125275Y279228D01*
X125538Y279217D01*
X128379D01*
Y278288D01*
X122893D01*
Y279118D01*
X123680D01*
X123658Y279129D01*
X123614Y279162D01*
X123538Y279228D01*
X123450Y279304D01*
X123341Y279402D01*
X123231Y279523D01*
X123122Y279654D01*
X123024Y279807D01*
X123013Y279829D01*
X122980Y279883D01*
X122947Y279971D01*
X122893Y280091D01*
X122849Y280233D01*
X122816Y280397D01*
X122783Y280583D01*
X122772Y280780D01*
Y280791D01*
Y280812D01*
Y280834D01*
Y280878D01*
X122783Y280998D01*
X122805Y281129D01*
X122838Y281293D01*
X122882Y281457D01*
X122947Y281621D01*
X123035Y281774D01*
X123046Y281796D01*
X123078Y281840D01*
X123133Y281906D01*
X123221Y281993D01*
X123319Y282080D01*
X123439Y282179D01*
X123581Y282266D01*
X123745Y282332D01*
X123734Y282343D01*
X123702Y282365D01*
X123658Y282397D01*
X123592Y282452D01*
X123516Y282518D01*
X123439Y282594D01*
X123352Y282681D01*
X123253Y282791D01*
X123166Y282911D01*
X123078Y283031D01*
X123002Y283173D01*
X122925Y283326D01*
X122860Y283490D01*
X122816Y283665D01*
X122783Y283840D01*
X122772Y284037D01*
Y284048D01*
Y284070D01*
Y284113D01*
X122783Y284168D01*
Y284244D01*
X122794Y284321D01*
X122827Y284507D01*
X122882Y284703D01*
X122969Y284911D01*
X123078Y285119D01*
X123231Y285294D01*
X123253Y285316D01*
X123319Y285359D01*
X123417Y285436D01*
X123494Y285469D01*
X123570Y285512D01*
X123669Y285556D01*
X123767Y285589D01*
X123876Y285633D01*
X124007Y285665D01*
X124139Y285687D01*
X124292Y285709D01*
X124445Y285731D01*
X128379D01*
Y284802D01*
D02*
G37*
G36*
X124991Y268276D02*
X125122D01*
X125265Y268265D01*
X125417Y268254D01*
X125767Y268221D01*
X126128Y268166D01*
X126478Y268101D01*
X126642Y268057D01*
X126806Y268003D01*
X126816D01*
X126838Y267992D01*
X126882Y267970D01*
X126937Y267948D01*
X127013Y267926D01*
X127090Y267882D01*
X127276Y267795D01*
X127472Y267686D01*
X127691Y267543D01*
X127888Y267379D01*
X128074Y267183D01*
Y267172D01*
X128095Y267161D01*
X128117Y267128D01*
X128139Y267084D01*
X128172Y267030D01*
X128216Y266975D01*
X128292Y266811D01*
X128369Y266614D01*
X128445Y266385D01*
X128489Y266112D01*
X128511Y265816D01*
Y265806D01*
Y265773D01*
Y265707D01*
X128500Y265631D01*
X128489Y265543D01*
X128467Y265434D01*
X128445Y265314D01*
X128412Y265182D01*
X128369Y265051D01*
X128325Y264909D01*
X128259Y264767D01*
X128183Y264625D01*
X128095Y264483D01*
X127986Y264341D01*
X127866Y264210D01*
X127735Y264090D01*
X127724Y264079D01*
X127691Y264057D01*
X127636Y264024D01*
X127549Y263969D01*
X127451Y263915D01*
X127319Y263860D01*
X127166Y263784D01*
X126991Y263718D01*
X126795Y263652D01*
X126565Y263587D01*
X126314Y263521D01*
X126030Y263467D01*
X125724Y263412D01*
X125396Y263379D01*
X125035Y263357D01*
X124652Y263346D01*
X124434D01*
X124313Y263357D01*
X124182D01*
X124040Y263368D01*
X123876Y263379D01*
X123538Y263412D01*
X123177Y263467D01*
X122816Y263532D01*
X122652Y263576D01*
X122488Y263620D01*
X122477D01*
X122455Y263631D01*
X122412Y263652D01*
X122357Y263674D01*
X122281Y263696D01*
X122204Y263740D01*
X122018Y263827D01*
X121821Y263936D01*
X121614Y264079D01*
X121406Y264243D01*
X121231Y264439D01*
Y264450D01*
X121209Y264461D01*
X121188Y264494D01*
X121166Y264538D01*
X121122Y264592D01*
X121089Y264658D01*
X121002Y264822D01*
X120925Y265019D01*
X120849Y265248D01*
X120805Y265521D01*
X120783Y265816D01*
Y265827D01*
Y265838D01*
Y265871D01*
Y265915D01*
X120794Y266035D01*
X120816Y266177D01*
X120849Y266341D01*
X120893Y266516D01*
X120947Y266702D01*
X121035Y266877D01*
Y266888D01*
X121045Y266899D01*
X121078Y266953D01*
X121133Y267041D01*
X121209Y267150D01*
X121319Y267270D01*
X121439Y267401D01*
X121581Y267522D01*
X121745Y267642D01*
X121767Y267653D01*
X121821Y267696D01*
X121920Y267740D01*
X122062Y267817D01*
X122226Y267882D01*
X122412Y267970D01*
X122630Y268046D01*
X122871Y268112D01*
X122882D01*
X122904Y268123D01*
X122936Y268134D01*
X122991Y268145D01*
X123057Y268156D01*
X123133Y268166D01*
X123231Y268188D01*
X123341Y268199D01*
X123461Y268221D01*
X123592Y268232D01*
X123745Y268243D01*
X123898Y268265D01*
X124073Y268276D01*
X124248D01*
X124445Y268287D01*
X124871D01*
X124991Y268276D01*
D02*
G37*
G36*
X374345Y306766D02*
X374433Y306755D01*
X374531Y306733D01*
X374640Y306711D01*
X374761Y306689D01*
X375023Y306602D01*
X375165Y306536D01*
X375296Y306471D01*
X375438Y306383D01*
X375580Y306285D01*
X375722Y306176D01*
X375854Y306045D01*
X375865Y306033D01*
X375886Y306012D01*
X375919Y305968D01*
X375963Y305913D01*
X376017Y305848D01*
X376072Y305760D01*
X376138Y305662D01*
X376192Y305542D01*
X376258Y305421D01*
X376324Y305279D01*
X376378Y305137D01*
X376433Y304973D01*
X376477Y304798D01*
X376509Y304613D01*
X376531Y304427D01*
X376542Y304219D01*
Y304208D01*
Y304175D01*
Y304121D01*
X376531Y304055D01*
X376520Y303968D01*
X376509Y303869D01*
X376487Y303760D01*
X376466Y303640D01*
X376400Y303378D01*
X376291Y303104D01*
X376225Y302962D01*
X376149Y302831D01*
X376050Y302700D01*
X375952Y302569D01*
X375941Y302558D01*
X375919Y302536D01*
X375886Y302503D01*
X375843Y302470D01*
X375788Y302416D01*
X375711Y302361D01*
X375635Y302295D01*
X375537Y302230D01*
X375427Y302164D01*
X375318Y302099D01*
X375056Y301978D01*
X374750Y301880D01*
X374586Y301847D01*
X374411Y301825D01*
X374291Y302754D01*
X374302D01*
X374323Y302765D01*
X374367Y302776D01*
X374422Y302787D01*
X374487Y302798D01*
X374564Y302820D01*
X374728Y302875D01*
X374924Y302951D01*
X375110Y303050D01*
X375285Y303159D01*
X375438Y303290D01*
X375449Y303312D01*
X375493Y303356D01*
X375548Y303443D01*
X375602Y303552D01*
X375668Y303684D01*
X375722Y303848D01*
X375766Y304033D01*
X375777Y304230D01*
Y304241D01*
Y304263D01*
Y304296D01*
X375766Y304339D01*
X375755Y304460D01*
X375722Y304613D01*
X375668Y304787D01*
X375591Y304973D01*
X375482Y305159D01*
X375329Y305334D01*
X375307Y305356D01*
X375241Y305411D01*
X375143Y305476D01*
X375012Y305563D01*
X374848Y305651D01*
X374662Y305717D01*
X374444Y305771D01*
X374203Y305793D01*
X374138D01*
X374094Y305782D01*
X373974Y305771D01*
X373832Y305738D01*
X373657Y305695D01*
X373482Y305618D01*
X373307Y305509D01*
X373143Y305367D01*
X373121Y305345D01*
X373077Y305290D01*
X373012Y305203D01*
X372935Y305083D01*
X372859Y304930D01*
X372793Y304744D01*
X372749Y304536D01*
X372728Y304307D01*
Y304296D01*
Y304263D01*
Y304208D01*
X372739Y304132D01*
X372749Y304033D01*
X372771Y303924D01*
X372793Y303793D01*
X372826Y303651D01*
X372006Y303760D01*
Y303771D01*
Y303815D01*
X372017Y303858D01*
Y303902D01*
Y303913D01*
Y303924D01*
Y303957D01*
Y304000D01*
X371995Y304121D01*
X371973Y304263D01*
X371941Y304427D01*
X371886Y304613D01*
X371810Y304787D01*
X371711Y304973D01*
Y304984D01*
X371700Y304995D01*
X371656Y305050D01*
X371580Y305126D01*
X371482Y305214D01*
X371340Y305301D01*
X371176Y305378D01*
X370990Y305432D01*
X370880Y305454D01*
X370673D01*
X370585Y305432D01*
X370465Y305411D01*
X370334Y305367D01*
X370192Y305312D01*
X370050Y305225D01*
X369919Y305104D01*
X369908Y305094D01*
X369864Y305039D01*
X369809Y304962D01*
X369744Y304864D01*
X369689Y304733D01*
X369634Y304580D01*
X369591Y304405D01*
X369580Y304208D01*
Y304197D01*
Y304186D01*
Y304121D01*
X369602Y304022D01*
X369623Y303891D01*
X369667Y303749D01*
X369722Y303607D01*
X369809Y303454D01*
X369919Y303312D01*
X369930Y303301D01*
X369984Y303257D01*
X370061Y303192D01*
X370170Y303115D01*
X370312Y303039D01*
X370487Y302962D01*
X370695Y302897D01*
X370935Y302853D01*
X370771Y301924D01*
X370760D01*
X370727Y301935D01*
X370684Y301946D01*
X370618Y301957D01*
X370542Y301978D01*
X370454Y302011D01*
X370247Y302077D01*
X370006Y302186D01*
X369765Y302317D01*
X369536Y302481D01*
X369328Y302689D01*
X369317Y302700D01*
X369306Y302722D01*
X369285Y302754D01*
X369252Y302798D01*
X369208Y302853D01*
X369164Y302929D01*
X369121Y303006D01*
X369066Y303104D01*
X368979Y303323D01*
X368891Y303574D01*
X368836Y303869D01*
X368815Y304022D01*
Y304186D01*
Y304197D01*
Y304219D01*
Y304252D01*
Y304296D01*
X368826Y304416D01*
X368847Y304558D01*
X368880Y304733D01*
X368935Y304930D01*
X369001Y305126D01*
X369088Y305323D01*
Y305334D01*
X369099Y305345D01*
X369132Y305411D01*
X369197Y305509D01*
X369274Y305618D01*
X369383Y305749D01*
X369503Y305880D01*
X369645Y306012D01*
X369809Y306121D01*
X369831Y306132D01*
X369886Y306165D01*
X369984Y306208D01*
X370104Y306263D01*
X370247Y306318D01*
X370410Y306361D01*
X370596Y306394D01*
X370782Y306405D01*
X370869D01*
X370957Y306394D01*
X371077Y306372D01*
X371219Y306340D01*
X371372Y306285D01*
X371525Y306219D01*
X371678Y306132D01*
X371700Y306121D01*
X371744Y306088D01*
X371820Y306023D01*
X371908Y305935D01*
X372006Y305826D01*
X372115Y305695D01*
X372214Y305542D01*
X372312Y305356D01*
Y305367D01*
X372323Y305389D01*
X372334Y305421D01*
X372345Y305465D01*
X372389Y305585D01*
X372454Y305738D01*
X372542Y305913D01*
X372651Y306088D01*
X372793Y306252D01*
X372957Y306405D01*
X372979Y306416D01*
X373044Y306460D01*
X373154Y306525D01*
X373296Y306591D01*
X373471Y306657D01*
X373678Y306722D01*
X373919Y306766D01*
X374181Y306777D01*
X374280D01*
X374345Y306766D01*
D02*
G37*
G36*
X234575Y406765D02*
X234629D01*
X234706Y406754D01*
X234892Y406721D01*
X235099Y406677D01*
X235329Y406601D01*
X235558Y406503D01*
X235788Y406371D01*
X235799D01*
X235810Y406350D01*
X235842Y406328D01*
X235886Y406295D01*
X235996Y406208D01*
X236138Y406087D01*
X236280Y405923D01*
X236444Y405727D01*
X236586Y405497D01*
X236717Y405235D01*
Y405224D01*
X236728Y405202D01*
X236750Y405158D01*
X236771Y405104D01*
X236793Y405027D01*
X236826Y404929D01*
X236848Y404819D01*
X236881Y404699D01*
X236914Y404557D01*
X236946Y404393D01*
X236968Y404218D01*
X236990Y404033D01*
X237012Y403825D01*
X237034Y403606D01*
X237045Y403366D01*
Y403114D01*
Y403103D01*
Y403049D01*
Y402972D01*
Y402874D01*
X237034Y402754D01*
Y402612D01*
X237023Y402448D01*
X237001Y402284D01*
X236968Y401912D01*
X236914Y401519D01*
X236837Y401147D01*
X236783Y400961D01*
X236728Y400797D01*
Y400786D01*
X236717Y400764D01*
X236695Y400721D01*
X236673Y400655D01*
X236640Y400590D01*
X236597Y400502D01*
X236487Y400316D01*
X236356Y400109D01*
X236203Y399890D01*
X236006Y399682D01*
X235788Y399497D01*
X235777D01*
X235755Y399475D01*
X235722Y399453D01*
X235679Y399431D01*
X235613Y399398D01*
X235547Y399354D01*
X235460Y399311D01*
X235372Y399278D01*
X235165Y399190D01*
X234913Y399114D01*
X234640Y399070D01*
X234334Y399048D01*
X234247D01*
X234192Y399059D01*
X234116D01*
X234028Y399070D01*
X233820Y399114D01*
X233591Y399169D01*
X233350Y399256D01*
X233110Y399376D01*
X232990Y399453D01*
X232880Y399540D01*
X232870Y399551D01*
X232859Y399562D01*
X232826Y399595D01*
X232793Y399628D01*
X232749Y399682D01*
X232695Y399748D01*
X232585Y399901D01*
X232476Y400098D01*
X232367Y400338D01*
X232279Y400611D01*
X232214Y400928D01*
X233110Y401005D01*
Y400994D01*
X233121Y400972D01*
Y400950D01*
X233132Y400907D01*
X233165Y400786D01*
X233208Y400655D01*
X233263Y400502D01*
X233340Y400349D01*
X233427Y400207D01*
X233536Y400087D01*
X233547Y400076D01*
X233591Y400043D01*
X233667Y399999D01*
X233755Y399956D01*
X233875Y399901D01*
X234017Y399857D01*
X234181Y399824D01*
X234356Y399814D01*
X234433D01*
X234509Y399824D01*
X234607Y399835D01*
X234728Y399857D01*
X234848Y399890D01*
X234979Y399934D01*
X235099Y399999D01*
X235110Y400010D01*
X235154Y400032D01*
X235220Y400076D01*
X235285Y400141D01*
X235372Y400218D01*
X235460Y400305D01*
X235547Y400404D01*
X235635Y400524D01*
X235646Y400535D01*
X235668Y400590D01*
X235711Y400666D01*
X235755Y400764D01*
X235810Y400896D01*
X235864Y401049D01*
X235919Y401224D01*
X235974Y401420D01*
Y401431D01*
X235985Y401442D01*
Y401475D01*
X235996Y401519D01*
X236017Y401628D01*
X236050Y401770D01*
X236072Y401945D01*
X236094Y402131D01*
X236105Y402338D01*
X236116Y402557D01*
Y402568D01*
Y402601D01*
Y402655D01*
Y402743D01*
X236105Y402721D01*
X236061Y402666D01*
X235996Y402590D01*
X235919Y402480D01*
X235810Y402371D01*
X235679Y402251D01*
X235525Y402131D01*
X235351Y402021D01*
X235329Y402010D01*
X235263Y401978D01*
X235165Y401934D01*
X235045Y401890D01*
X234881Y401836D01*
X234706Y401792D01*
X234509Y401759D01*
X234301Y401748D01*
X234214D01*
X234148Y401759D01*
X234061Y401770D01*
X233974Y401781D01*
X233864Y401803D01*
X233755Y401836D01*
X233504Y401912D01*
X233372Y401967D01*
X233241Y402032D01*
X233099Y402109D01*
X232968Y402207D01*
X232837Y402306D01*
X232716Y402426D01*
X232706Y402437D01*
X232684Y402459D01*
X232662Y402491D01*
X232618Y402546D01*
X232563Y402623D01*
X232509Y402699D01*
X232454Y402797D01*
X232400Y402907D01*
X232334Y403027D01*
X232279Y403158D01*
X232225Y403311D01*
X232170Y403464D01*
X232126Y403639D01*
X232104Y403825D01*
X232083Y404011D01*
X232072Y404218D01*
Y404229D01*
Y404273D01*
Y404328D01*
X232083Y404404D01*
X232094Y404502D01*
X232104Y404623D01*
X232126Y404743D01*
X232159Y404885D01*
X232236Y405169D01*
X232290Y405322D01*
X232356Y405486D01*
X232432Y405639D01*
X232531Y405781D01*
X232629Y405934D01*
X232749Y406066D01*
X232760Y406076D01*
X232782Y406098D01*
X232815Y406131D01*
X232870Y406175D01*
X232935Y406229D01*
X233022Y406295D01*
X233110Y406350D01*
X233219Y406426D01*
X233329Y406492D01*
X233460Y406546D01*
X233755Y406667D01*
X233908Y406710D01*
X234083Y406743D01*
X234258Y406765D01*
X234443Y406776D01*
X234520D01*
X234575Y406765D01*
D02*
G37*
G36*
X373023Y327325D02*
X373154D01*
X373296Y327314D01*
X373449Y327303D01*
X373799Y327271D01*
X374159Y327216D01*
X374509Y327150D01*
X374673Y327107D01*
X374837Y327052D01*
X374848D01*
X374870Y327041D01*
X374914Y327019D01*
X374968Y326997D01*
X375045Y326975D01*
X375121Y326932D01*
X375307Y326844D01*
X375504Y326735D01*
X375722Y326593D01*
X375919Y326429D01*
X376105Y326232D01*
Y326221D01*
X376127Y326210D01*
X376149Y326178D01*
X376170Y326134D01*
X376203Y326079D01*
X376247Y326025D01*
X376324Y325861D01*
X376400Y325664D01*
X376477Y325434D01*
X376520Y325161D01*
X376542Y324866D01*
Y324855D01*
Y324822D01*
Y324757D01*
X376531Y324680D01*
X376520Y324593D01*
X376498Y324483D01*
X376477Y324363D01*
X376444Y324232D01*
X376400Y324101D01*
X376356Y323959D01*
X376291Y323817D01*
X376214Y323675D01*
X376127Y323533D01*
X376017Y323390D01*
X375897Y323259D01*
X375766Y323139D01*
X375755Y323128D01*
X375722Y323106D01*
X375668Y323073D01*
X375580Y323019D01*
X375482Y322964D01*
X375351Y322909D01*
X375198Y322833D01*
X375023Y322767D01*
X374826Y322702D01*
X374597Y322636D01*
X374345Y322571D01*
X374061Y322516D01*
X373755Y322461D01*
X373427Y322428D01*
X373066Y322407D01*
X372684Y322396D01*
X372465D01*
X372345Y322407D01*
X372214D01*
X372072Y322418D01*
X371908Y322428D01*
X371569Y322461D01*
X371208Y322516D01*
X370848Y322582D01*
X370684Y322625D01*
X370520Y322669D01*
X370509D01*
X370487Y322680D01*
X370443Y322702D01*
X370389Y322724D01*
X370312Y322745D01*
X370235Y322789D01*
X370050Y322877D01*
X369853Y322986D01*
X369645Y323128D01*
X369438Y323292D01*
X369263Y323489D01*
Y323500D01*
X369241Y323511D01*
X369219Y323543D01*
X369197Y323587D01*
X369153Y323642D01*
X369121Y323707D01*
X369033Y323871D01*
X368957Y324068D01*
X368880Y324298D01*
X368836Y324571D01*
X368815Y324866D01*
Y324877D01*
Y324888D01*
Y324921D01*
Y324964D01*
X368826Y325084D01*
X368847Y325227D01*
X368880Y325391D01*
X368924Y325565D01*
X368979Y325751D01*
X369066Y325926D01*
Y325937D01*
X369077Y325948D01*
X369110Y326003D01*
X369164Y326090D01*
X369241Y326199D01*
X369350Y326320D01*
X369470Y326451D01*
X369613Y326571D01*
X369777Y326691D01*
X369798Y326702D01*
X369853Y326746D01*
X369951Y326790D01*
X370093Y326866D01*
X370257Y326932D01*
X370443Y327019D01*
X370662Y327096D01*
X370902Y327161D01*
X370913D01*
X370935Y327172D01*
X370968Y327183D01*
X371023Y327194D01*
X371088Y327205D01*
X371165Y327216D01*
X371263Y327238D01*
X371372Y327249D01*
X371493Y327271D01*
X371624Y327281D01*
X371777Y327292D01*
X371930Y327314D01*
X372105Y327325D01*
X372279D01*
X372476Y327336D01*
X372902D01*
X373023Y327325D01*
D02*
G37*
G36*
X376411Y335042D02*
X372782D01*
X372662Y335031D01*
X372531Y335020D01*
X372400Y335009D01*
X372269Y334987D01*
X372170Y334954D01*
X372159D01*
X372126Y334932D01*
X372083Y334911D01*
X372028Y334878D01*
X371962Y334834D01*
X371897Y334779D01*
X371831Y334714D01*
X371766Y334626D01*
X371755Y334615D01*
X371744Y334583D01*
X371722Y334539D01*
X371689Y334462D01*
X371656Y334386D01*
X371635Y334288D01*
X371624Y334189D01*
X371613Y334069D01*
Y334058D01*
Y334047D01*
Y334014D01*
X371624Y333971D01*
X371635Y333861D01*
X371656Y333730D01*
X371711Y333577D01*
X371777Y333413D01*
X371875Y333249D01*
X372006Y333096D01*
X372028Y333085D01*
X372083Y333042D01*
X372170Y332976D01*
X372301Y332910D01*
X372476Y332834D01*
X372684Y332779D01*
X372935Y332735D01*
X373230Y332714D01*
X376411D01*
Y331785D01*
X372760D01*
X372640Y331774D01*
X372509Y331752D01*
X372356Y331730D01*
X372203Y331686D01*
X372061Y331632D01*
X371930Y331555D01*
X371919Y331544D01*
X371875Y331511D01*
X371831Y331457D01*
X371766Y331380D01*
X371711Y331282D01*
X371656Y331151D01*
X371624Y330998D01*
X371613Y330812D01*
Y330790D01*
Y330746D01*
X371624Y330670D01*
X371635Y330582D01*
X371667Y330473D01*
X371700Y330342D01*
X371755Y330222D01*
X371820Y330090D01*
X371831Y330080D01*
X371864Y330036D01*
X371908Y329981D01*
X371973Y329905D01*
X372061Y329828D01*
X372170Y329752D01*
X372290Y329675D01*
X372432Y329609D01*
X372454Y329599D01*
X372509Y329588D01*
X372596Y329566D01*
X372717Y329533D01*
X372881Y329500D01*
X373077Y329478D01*
X373307Y329467D01*
X373569Y329456D01*
X376411D01*
Y328527D01*
X370924D01*
Y329358D01*
X371711D01*
X371689Y329369D01*
X371645Y329402D01*
X371569Y329467D01*
X371482Y329544D01*
X371372Y329642D01*
X371263Y329763D01*
X371154Y329894D01*
X371055Y330047D01*
X371044Y330069D01*
X371012Y330123D01*
X370979Y330211D01*
X370924Y330331D01*
X370880Y330473D01*
X370848Y330637D01*
X370815Y330823D01*
X370804Y331019D01*
Y331030D01*
Y331052D01*
Y331074D01*
Y331118D01*
X370815Y331238D01*
X370837Y331369D01*
X370869Y331533D01*
X370913Y331697D01*
X370979Y331861D01*
X371066Y332014D01*
X371077Y332036D01*
X371110Y332080D01*
X371165Y332145D01*
X371252Y332233D01*
X371350Y332320D01*
X371471Y332418D01*
X371613Y332506D01*
X371777Y332572D01*
X371766Y332582D01*
X371733Y332604D01*
X371689Y332637D01*
X371624Y332692D01*
X371547Y332757D01*
X371471Y332834D01*
X371383Y332921D01*
X371285Y333031D01*
X371197Y333151D01*
X371110Y333271D01*
X371033Y333413D01*
X370957Y333566D01*
X370891Y333730D01*
X370848Y333905D01*
X370815Y334080D01*
X370804Y334277D01*
Y334288D01*
Y334309D01*
Y334353D01*
X370815Y334408D01*
Y334484D01*
X370826Y334561D01*
X370859Y334747D01*
X370913Y334943D01*
X371001Y335151D01*
X371110Y335359D01*
X371263Y335534D01*
X371285Y335556D01*
X371350Y335599D01*
X371449Y335676D01*
X371525Y335708D01*
X371602Y335752D01*
X371700Y335796D01*
X371798Y335829D01*
X371908Y335872D01*
X372039Y335905D01*
X372170Y335927D01*
X372323Y335949D01*
X372476Y335971D01*
X376411D01*
Y335042D01*
D02*
G37*
G36*
X258785Y404776D02*
X258861D01*
X258938Y404765D01*
X259123Y404732D01*
X259320Y404677D01*
X259528Y404590D01*
X259735Y404481D01*
X259910Y404328D01*
X259932Y404306D01*
X259976Y404240D01*
X260052Y404142D01*
X260085Y404065D01*
X260129Y403989D01*
X260173Y403890D01*
X260206Y403792D01*
X260249Y403683D01*
X260282Y403552D01*
X260304Y403420D01*
X260326Y403267D01*
X260348Y403114D01*
Y402940D01*
Y399180D01*
X259419D01*
Y402623D01*
Y402633D01*
Y402644D01*
Y402710D01*
Y402808D01*
X259408Y402928D01*
X259397Y403060D01*
X259386Y403191D01*
X259364Y403322D01*
X259331Y403420D01*
Y403431D01*
X259309Y403464D01*
X259287Y403508D01*
X259255Y403562D01*
X259211Y403628D01*
X259156Y403694D01*
X259091Y403759D01*
X259003Y403825D01*
X258992Y403836D01*
X258959Y403847D01*
X258916Y403868D01*
X258839Y403901D01*
X258763Y403934D01*
X258664Y403956D01*
X258566Y403967D01*
X258446Y403978D01*
X258391D01*
X258347Y403967D01*
X258238Y403956D01*
X258107Y403934D01*
X257954Y403879D01*
X257790Y403814D01*
X257626Y403716D01*
X257473Y403584D01*
X257462Y403562D01*
X257418Y403508D01*
X257353Y403420D01*
X257287Y403289D01*
X257211Y403114D01*
X257156Y402907D01*
X257112Y402655D01*
X257090Y402360D01*
Y399180D01*
X256161D01*
Y402732D01*
Y402743D01*
Y402765D01*
Y402786D01*
Y402830D01*
X256150Y402950D01*
X256129Y403082D01*
X256107Y403235D01*
X256063Y403388D01*
X256008Y403530D01*
X255932Y403661D01*
X255921Y403672D01*
X255888Y403716D01*
X255833Y403759D01*
X255757Y403825D01*
X255659Y403879D01*
X255527Y403934D01*
X255374Y403967D01*
X255189Y403978D01*
X255123D01*
X255047Y403967D01*
X254959Y403956D01*
X254850Y403923D01*
X254719Y403890D01*
X254598Y403836D01*
X254467Y403770D01*
X254456Y403759D01*
X254413Y403726D01*
X254358Y403683D01*
X254281Y403617D01*
X254205Y403530D01*
X254128Y403420D01*
X254052Y403300D01*
X253986Y403158D01*
X253975Y403136D01*
X253964Y403082D01*
X253943Y402994D01*
X253910Y402874D01*
X253877Y402710D01*
X253855Y402513D01*
X253844Y402284D01*
X253833Y402021D01*
Y399180D01*
X252904D01*
Y404666D01*
X253735D01*
Y403879D01*
X253746Y403901D01*
X253779Y403945D01*
X253844Y404022D01*
X253921Y404109D01*
X254019Y404218D01*
X254139Y404328D01*
X254271Y404437D01*
X254423Y404535D01*
X254445Y404546D01*
X254500Y404579D01*
X254587Y404612D01*
X254708Y404666D01*
X254850Y404710D01*
X255014Y404743D01*
X255200Y404776D01*
X255396Y404787D01*
X255495D01*
X255615Y404776D01*
X255746Y404754D01*
X255910Y404721D01*
X256074Y404677D01*
X256238Y404612D01*
X256391Y404524D01*
X256413Y404513D01*
X256456Y404481D01*
X256522Y404426D01*
X256610Y404339D01*
X256697Y404240D01*
X256795Y404120D01*
X256883Y403978D01*
X256948Y403814D01*
X256959Y403825D01*
X256981Y403858D01*
X257014Y403901D01*
X257068Y403967D01*
X257134Y404043D01*
X257211Y404120D01*
X257298Y404207D01*
X257407Y404306D01*
X257528Y404393D01*
X257648Y404481D01*
X257790Y404557D01*
X257943Y404634D01*
X258107Y404699D01*
X258282Y404743D01*
X258457Y404776D01*
X258653Y404787D01*
X258730D01*
X258785Y404776D01*
D02*
G37*
G36*
X373023Y321445D02*
X373154D01*
X373296Y321434D01*
X373449Y321423D01*
X373799Y321390D01*
X374159Y321336D01*
X374509Y321270D01*
X374673Y321226D01*
X374837Y321172D01*
X374848D01*
X374870Y321161D01*
X374914Y321139D01*
X374968Y321117D01*
X375045Y321095D01*
X375121Y321051D01*
X375307Y320964D01*
X375504Y320855D01*
X375722Y320712D01*
X375919Y320549D01*
X376105Y320352D01*
Y320341D01*
X376127Y320330D01*
X376149Y320297D01*
X376170Y320253D01*
X376203Y320199D01*
X376247Y320144D01*
X376324Y319980D01*
X376400Y319783D01*
X376477Y319554D01*
X376520Y319281D01*
X376542Y318986D01*
Y318975D01*
Y318942D01*
Y318876D01*
X376531Y318800D01*
X376520Y318712D01*
X376498Y318603D01*
X376477Y318483D01*
X376444Y318352D01*
X376400Y318220D01*
X376356Y318078D01*
X376291Y317936D01*
X376214Y317794D01*
X376127Y317652D01*
X376017Y317510D01*
X375897Y317379D01*
X375766Y317259D01*
X375755Y317248D01*
X375722Y317226D01*
X375668Y317193D01*
X375580Y317138D01*
X375482Y317084D01*
X375351Y317029D01*
X375198Y316953D01*
X375023Y316887D01*
X374826Y316821D01*
X374597Y316756D01*
X374345Y316690D01*
X374061Y316636D01*
X373755Y316581D01*
X373427Y316548D01*
X373066Y316526D01*
X372684Y316515D01*
X372465D01*
X372345Y316526D01*
X372214D01*
X372072Y316537D01*
X371908Y316548D01*
X371569Y316581D01*
X371208Y316636D01*
X370848Y316701D01*
X370684Y316745D01*
X370520Y316789D01*
X370509D01*
X370487Y316800D01*
X370443Y316821D01*
X370389Y316843D01*
X370312Y316865D01*
X370235Y316909D01*
X370050Y316996D01*
X369853Y317106D01*
X369645Y317248D01*
X369438Y317412D01*
X369263Y317608D01*
Y317619D01*
X369241Y317630D01*
X369219Y317663D01*
X369197Y317707D01*
X369153Y317761D01*
X369121Y317827D01*
X369033Y317991D01*
X368957Y318188D01*
X368880Y318417D01*
X368836Y318690D01*
X368815Y318986D01*
Y318997D01*
Y319007D01*
Y319040D01*
Y319084D01*
X368826Y319204D01*
X368847Y319346D01*
X368880Y319510D01*
X368924Y319685D01*
X368979Y319871D01*
X369066Y320046D01*
Y320057D01*
X369077Y320068D01*
X369110Y320122D01*
X369164Y320210D01*
X369241Y320319D01*
X369350Y320439D01*
X369470Y320570D01*
X369613Y320691D01*
X369777Y320811D01*
X369798Y320822D01*
X369853Y320866D01*
X369951Y320909D01*
X370093Y320986D01*
X370257Y321051D01*
X370443Y321139D01*
X370662Y321215D01*
X370902Y321281D01*
X370913D01*
X370935Y321292D01*
X370968Y321303D01*
X371023Y321314D01*
X371088Y321325D01*
X371165Y321336D01*
X371263Y321357D01*
X371372Y321368D01*
X371493Y321390D01*
X371624Y321401D01*
X371777Y321412D01*
X371930Y321434D01*
X372105Y321445D01*
X372279D01*
X372476Y321456D01*
X372902D01*
X373023Y321445D01*
D02*
G37*
G36*
X125997Y247771D02*
X126084Y247760D01*
X126183Y247749D01*
X126303Y247727D01*
X126423Y247706D01*
X126707Y247640D01*
X127002Y247531D01*
X127155Y247465D01*
X127297Y247378D01*
X127451Y247290D01*
X127593Y247181D01*
X127603Y247170D01*
X127636Y247148D01*
X127680Y247104D01*
X127735Y247050D01*
X127800Y246973D01*
X127888Y246886D01*
X127964Y246776D01*
X128052Y246656D01*
X128139Y246525D01*
X128216Y246372D01*
X128292Y246208D01*
X128369Y246033D01*
X128423Y245847D01*
X128467Y245640D01*
X128500Y245421D01*
X128511Y245192D01*
Y245181D01*
Y245148D01*
Y245093D01*
X128500Y245017D01*
X128489Y244929D01*
X128478Y244831D01*
X128467Y244711D01*
X128434Y244590D01*
X128369Y244317D01*
X128270Y244044D01*
X128205Y243902D01*
X128128Y243760D01*
X128041Y243629D01*
X127942Y243497D01*
X127931Y243486D01*
X127920Y243465D01*
X127877Y243443D01*
X127833Y243399D01*
X127778Y243344D01*
X127713Y243290D01*
X127625Y243224D01*
X127527Y243169D01*
X127429Y243104D01*
X127308Y243038D01*
X127046Y242918D01*
X126740Y242820D01*
X126576Y242787D01*
X126401Y242765D01*
X126325Y243738D01*
X126357D01*
X126390Y243749D01*
X126445Y243760D01*
X126565Y243793D01*
X126729Y243836D01*
X126893Y243902D01*
X127079Y243989D01*
X127243Y244099D01*
X127396Y244230D01*
X127407Y244252D01*
X127451Y244295D01*
X127505Y244383D01*
X127571Y244503D01*
X127636Y244634D01*
X127691Y244798D01*
X127735Y244984D01*
X127746Y245192D01*
Y245202D01*
Y245224D01*
Y245257D01*
X127735Y245301D01*
X127724Y245432D01*
X127680Y245585D01*
X127625Y245771D01*
X127538Y245957D01*
X127407Y246153D01*
X127330Y246241D01*
X127243Y246328D01*
X127232Y246339D01*
X127221Y246350D01*
X127188Y246372D01*
X127155Y246405D01*
X127035Y246481D01*
X126882Y246569D01*
X126696Y246645D01*
X126467Y246722D01*
X126193Y246776D01*
X126051Y246798D01*
X125822D01*
X125767Y246787D01*
X125702D01*
X125625Y246776D01*
X125450Y246744D01*
X125243Y246689D01*
X125035Y246613D01*
X124838Y246503D01*
X124652Y246350D01*
X124641D01*
X124630Y246328D01*
X124576Y246274D01*
X124499Y246175D01*
X124412Y246044D01*
X124335Y245869D01*
X124259Y245672D01*
X124204Y245443D01*
X124182Y245312D01*
Y245181D01*
Y245159D01*
Y245104D01*
X124193Y245017D01*
X124204Y244907D01*
X124237Y244776D01*
X124270Y244645D01*
X124325Y244503D01*
X124390Y244361D01*
X124401Y244350D01*
X124423Y244306D01*
X124478Y244241D01*
X124532Y244153D01*
X124609Y244066D01*
X124707Y243978D01*
X124805Y243880D01*
X124926Y243804D01*
X124805Y242929D01*
X120914Y243661D01*
Y247421D01*
X121800D01*
Y244394D01*
X123844Y243989D01*
X123833Y244000D01*
X123822Y244022D01*
X123800Y244055D01*
X123767Y244110D01*
X123734Y244175D01*
X123690Y244252D01*
X123603Y244426D01*
X123516Y244645D01*
X123439Y244885D01*
X123384Y245148D01*
X123363Y245279D01*
Y245421D01*
Y245432D01*
Y245465D01*
Y245519D01*
X123374Y245585D01*
X123384Y245672D01*
X123395Y245771D01*
X123417Y245880D01*
X123450Y246000D01*
X123527Y246263D01*
X123581Y246405D01*
X123658Y246547D01*
X123734Y246689D01*
X123822Y246831D01*
X123931Y246962D01*
X124051Y247093D01*
X124062Y247104D01*
X124084Y247126D01*
X124117Y247159D01*
X124171Y247203D01*
X124248Y247257D01*
X124325Y247312D01*
X124423Y247378D01*
X124532Y247443D01*
X124652Y247498D01*
X124784Y247563D01*
X124937Y247618D01*
X125090Y247673D01*
X125253Y247716D01*
X125439Y247749D01*
X125625Y247771D01*
X125822Y247782D01*
X125920D01*
X125997Y247771D01*
D02*
G37*
G36*
X267594Y404776D02*
X267671D01*
X267747Y404765D01*
X267933Y404732D01*
X268130Y404677D01*
X268337Y404590D01*
X268545Y404481D01*
X268720Y404328D01*
X268742Y404306D01*
X268786Y404240D01*
X268862Y404142D01*
X268895Y404065D01*
X268938Y403989D01*
X268982Y403890D01*
X269015Y403792D01*
X269059Y403683D01*
X269092Y403552D01*
X269113Y403420D01*
X269135Y403267D01*
X269157Y403114D01*
Y402940D01*
Y399180D01*
X268228D01*
Y402623D01*
Y402633D01*
Y402644D01*
Y402710D01*
Y402808D01*
X268217Y402928D01*
X268206Y403060D01*
X268195Y403191D01*
X268173Y403322D01*
X268141Y403420D01*
Y403431D01*
X268119Y403464D01*
X268097Y403508D01*
X268064Y403562D01*
X268020Y403628D01*
X267966Y403694D01*
X267900Y403759D01*
X267813Y403825D01*
X267802Y403836D01*
X267769Y403847D01*
X267725Y403868D01*
X267649Y403901D01*
X267572Y403934D01*
X267474Y403956D01*
X267375Y403967D01*
X267255Y403978D01*
X267201D01*
X267157Y403967D01*
X267048Y403956D01*
X266916Y403934D01*
X266763Y403879D01*
X266599Y403814D01*
X266436Y403716D01*
X266283Y403584D01*
X266272Y403562D01*
X266228Y403508D01*
X266162Y403420D01*
X266097Y403289D01*
X266020Y403114D01*
X265966Y402907D01*
X265922Y402655D01*
X265900Y402360D01*
Y399180D01*
X264971D01*
Y402732D01*
Y402743D01*
Y402765D01*
Y402786D01*
Y402830D01*
X264960Y402950D01*
X264938Y403082D01*
X264916Y403235D01*
X264873Y403388D01*
X264818Y403530D01*
X264741Y403661D01*
X264731Y403672D01*
X264698Y403716D01*
X264643Y403759D01*
X264566Y403825D01*
X264468Y403879D01*
X264337Y403934D01*
X264184Y403967D01*
X263998Y403978D01*
X263933D01*
X263856Y403967D01*
X263769Y403956D01*
X263659Y403923D01*
X263528Y403890D01*
X263408Y403836D01*
X263277Y403770D01*
X263266Y403759D01*
X263222Y403726D01*
X263168Y403683D01*
X263091Y403617D01*
X263015Y403530D01*
X262938Y403420D01*
X262861Y403300D01*
X262796Y403158D01*
X262785Y403136D01*
X262774Y403082D01*
X262752Y402994D01*
X262719Y402874D01*
X262687Y402710D01*
X262665Y402513D01*
X262654Y402284D01*
X262643Y402021D01*
Y399180D01*
X261714D01*
Y404666D01*
X262544D01*
Y403879D01*
X262555Y403901D01*
X262588Y403945D01*
X262654Y404022D01*
X262730Y404109D01*
X262829Y404218D01*
X262949Y404328D01*
X263080Y404437D01*
X263233Y404535D01*
X263255Y404546D01*
X263310Y404579D01*
X263397Y404612D01*
X263517Y404666D01*
X263659Y404710D01*
X263823Y404743D01*
X264009Y404776D01*
X264206Y404787D01*
X264304D01*
X264424Y404776D01*
X264556Y404754D01*
X264720Y404721D01*
X264883Y404677D01*
X265047Y404612D01*
X265200Y404524D01*
X265222Y404513D01*
X265266Y404481D01*
X265332Y404426D01*
X265419Y404339D01*
X265507Y404240D01*
X265605Y404120D01*
X265692Y403978D01*
X265758Y403814D01*
X265769Y403825D01*
X265791Y403858D01*
X265824Y403901D01*
X265878Y403967D01*
X265944Y404043D01*
X266020Y404120D01*
X266108Y404207D01*
X266217Y404306D01*
X266337Y404393D01*
X266457Y404481D01*
X266599Y404557D01*
X266753Y404634D01*
X266916Y404699D01*
X267091Y404743D01*
X267266Y404776D01*
X267463Y404787D01*
X267540D01*
X267594Y404776D01*
D02*
G37*
%LPC*%
G36*
X373023Y320505D02*
X372509D01*
X372378Y320494D01*
X372236D01*
X372061Y320483D01*
X371875Y320472D01*
X371667Y320450D01*
X371252Y320395D01*
X371044Y320363D01*
X370848Y320319D01*
X370662Y320275D01*
X370487Y320210D01*
X370334Y320144D01*
X370203Y320068D01*
X370192D01*
X370181Y320046D01*
X370148Y320024D01*
X370104Y319991D01*
X370006Y319893D01*
X369886Y319773D01*
X369777Y319609D01*
X369678Y319423D01*
X369634Y319324D01*
X369602Y319215D01*
X369591Y319095D01*
X369580Y318975D01*
Y318964D01*
Y318942D01*
Y318909D01*
X369591Y318865D01*
X369613Y318745D01*
X369645Y318603D01*
X369711Y318439D01*
X369809Y318264D01*
X369875Y318177D01*
X369940Y318089D01*
X370028Y318013D01*
X370126Y317936D01*
X370137D01*
X370159Y317914D01*
X370203Y317893D01*
X370257Y317860D01*
X370345Y317827D01*
X370443Y317783D01*
X370563Y317751D01*
X370706Y317707D01*
X370869Y317663D01*
X371055Y317619D01*
X371263Y317576D01*
X371493Y317543D01*
X371755Y317510D01*
X372039Y317488D01*
X372345Y317477D01*
X372684Y317466D01*
X372859D01*
X372990Y317477D01*
X373132D01*
X373307Y317488D01*
X373493Y317499D01*
X373689Y317521D01*
X374116Y317576D01*
X374323Y317608D01*
X374520Y317652D01*
X374706Y317696D01*
X374881Y317761D01*
X375034Y317827D01*
X375165Y317903D01*
X375176D01*
X375187Y317925D01*
X375263Y317980D01*
X375362Y318078D01*
X375471Y318199D01*
X375580Y318363D01*
X375679Y318548D01*
X375755Y318756D01*
X375766Y318865D01*
X375777Y318986D01*
Y318997D01*
Y319018D01*
Y319051D01*
X375766Y319095D01*
X375744Y319204D01*
X375700Y319357D01*
X375624Y319521D01*
X375515Y319707D01*
X375449Y319794D01*
X375362Y319882D01*
X375274Y319969D01*
X375165Y320057D01*
X375154D01*
X375132Y320079D01*
X375099Y320100D01*
X375045Y320122D01*
X374968Y320166D01*
X374870Y320199D01*
X374761Y320243D01*
X374629Y320286D01*
X374465Y320319D01*
X374291Y320363D01*
X374083Y320407D01*
X373864Y320439D01*
X373602Y320461D01*
X373329Y320483D01*
X373023Y320505D01*
D02*
G37*
G36*
Y326385D02*
X372509D01*
X372378Y326374D01*
X372236D01*
X372061Y326363D01*
X371875Y326352D01*
X371667Y326330D01*
X371252Y326276D01*
X371044Y326243D01*
X370848Y326199D01*
X370662Y326156D01*
X370487Y326090D01*
X370334Y326025D01*
X370203Y325948D01*
X370192D01*
X370181Y325926D01*
X370148Y325904D01*
X370104Y325871D01*
X370006Y325773D01*
X369886Y325653D01*
X369777Y325489D01*
X369678Y325303D01*
X369634Y325205D01*
X369602Y325095D01*
X369591Y324975D01*
X369580Y324855D01*
Y324844D01*
Y324822D01*
Y324789D01*
X369591Y324746D01*
X369613Y324625D01*
X369645Y324483D01*
X369711Y324319D01*
X369809Y324145D01*
X369875Y324057D01*
X369940Y323970D01*
X370028Y323893D01*
X370126Y323817D01*
X370137D01*
X370159Y323795D01*
X370203Y323773D01*
X370257Y323740D01*
X370345Y323707D01*
X370443Y323664D01*
X370563Y323631D01*
X370706Y323587D01*
X370869Y323543D01*
X371055Y323500D01*
X371263Y323456D01*
X371493Y323423D01*
X371755Y323390D01*
X372039Y323369D01*
X372345Y323358D01*
X372684Y323347D01*
X372859D01*
X372990Y323358D01*
X373132D01*
X373307Y323369D01*
X373493Y323379D01*
X373689Y323401D01*
X374116Y323456D01*
X374323Y323489D01*
X374520Y323533D01*
X374706Y323576D01*
X374881Y323642D01*
X375034Y323707D01*
X375165Y323784D01*
X375176D01*
X375187Y323806D01*
X375263Y323860D01*
X375362Y323959D01*
X375471Y324079D01*
X375580Y324243D01*
X375679Y324429D01*
X375755Y324636D01*
X375766Y324746D01*
X375777Y324866D01*
Y324877D01*
Y324899D01*
Y324932D01*
X375766Y324975D01*
X375744Y325084D01*
X375700Y325237D01*
X375624Y325401D01*
X375515Y325587D01*
X375449Y325675D01*
X375362Y325762D01*
X375274Y325850D01*
X375165Y325937D01*
X375154D01*
X375132Y325959D01*
X375099Y325981D01*
X375045Y326003D01*
X374968Y326046D01*
X374870Y326079D01*
X374761Y326123D01*
X374629Y326167D01*
X374465Y326199D01*
X374291Y326243D01*
X374083Y326287D01*
X373864Y326320D01*
X373602Y326342D01*
X373329Y326363D01*
X373023Y326385D01*
D02*
G37*
G36*
X234449Y415078D02*
X234383D01*
X234340Y415067D01*
X234230Y415057D01*
X234077Y415024D01*
X233913Y414969D01*
X233728Y414882D01*
X233553Y414772D01*
X233378Y414619D01*
X233356Y414598D01*
X233312Y414543D01*
X233236Y414444D01*
X233159Y414302D01*
X233083Y414138D01*
X233006Y413931D01*
X232962Y413701D01*
X232941Y413439D01*
Y413417D01*
Y413362D01*
X232951Y413264D01*
X232962Y413144D01*
X232984Y413002D01*
X233028Y412849D01*
X233072Y412685D01*
X233137Y412521D01*
X233148Y412499D01*
X233181Y412444D01*
X233225Y412368D01*
X233290Y412269D01*
X233367Y412171D01*
X233465Y412051D01*
X233575Y411952D01*
X233706Y411854D01*
X233728Y411843D01*
X233771Y411821D01*
X233848Y411777D01*
X233946Y411745D01*
X234055Y411701D01*
X234187Y411657D01*
X234329Y411635D01*
X234482Y411624D01*
X234536D01*
X234580Y411635D01*
X234689Y411646D01*
X234832Y411679D01*
X234984Y411745D01*
X235159Y411821D01*
X235334Y411941D01*
X235422Y412007D01*
X235498Y412094D01*
Y412105D01*
X235520Y412116D01*
X235564Y412182D01*
X235629Y412291D01*
X235717Y412433D01*
X235793Y412619D01*
X235859Y412838D01*
X235903Y413089D01*
X235925Y413384D01*
Y413395D01*
Y413417D01*
Y413461D01*
X235913Y413515D01*
Y413581D01*
X235903Y413658D01*
X235870Y413832D01*
X235826Y414029D01*
X235750Y414237D01*
X235640Y414433D01*
X235498Y414619D01*
X235476Y414641D01*
X235422Y414696D01*
X235334Y414761D01*
X235214Y414849D01*
X235061Y414936D01*
X234886Y415002D01*
X234679Y415057D01*
X234449Y415078D01*
D02*
G37*
G36*
X126237Y252668D02*
X126172D01*
X126128Y252657D01*
X126008Y252646D01*
X125844Y252613D01*
X125680Y252558D01*
X125494Y252482D01*
X125308Y252373D01*
X125133Y252220D01*
X125111Y252198D01*
X125068Y252143D01*
X124991Y252045D01*
X124904Y251913D01*
X124827Y251750D01*
X124751Y251553D01*
X124707Y251334D01*
X124685Y251094D01*
Y251083D01*
Y251061D01*
Y251028D01*
X124696Y250985D01*
X124707Y250864D01*
X124740Y250711D01*
X124794Y250536D01*
X124871Y250361D01*
X124980Y250176D01*
X125122Y250012D01*
X125144Y249990D01*
X125199Y249946D01*
X125297Y249881D01*
X125417Y249804D01*
X125581Y249717D01*
X125767Y249651D01*
X125975Y249607D01*
X126204Y249585D01*
X126270D01*
X126347Y249596D01*
X126445Y249607D01*
X126565Y249629D01*
X126696Y249662D01*
X126827Y249706D01*
X126970Y249760D01*
X126980Y249771D01*
X127035Y249793D01*
X127101Y249837D01*
X127177Y249902D01*
X127276Y249979D01*
X127374Y250077D01*
X127461Y250187D01*
X127549Y250318D01*
X127560Y250340D01*
X127582Y250383D01*
X127614Y250460D01*
X127647Y250558D01*
X127680Y250678D01*
X127713Y250820D01*
X127735Y250974D01*
X127746Y251127D01*
Y251137D01*
Y251159D01*
Y251192D01*
X127735Y251236D01*
X127724Y251367D01*
X127691Y251520D01*
X127636Y251695D01*
X127571Y251881D01*
X127461Y252056D01*
X127319Y252231D01*
X127297Y252252D01*
X127243Y252296D01*
X127144Y252373D01*
X127024Y252449D01*
X126871Y252526D01*
X126685Y252602D01*
X126467Y252646D01*
X126237Y252668D01*
D02*
G37*
G36*
X234673Y406011D02*
X234498D01*
X234454Y406000D01*
X234334Y405989D01*
X234192Y405945D01*
X234017Y405891D01*
X233831Y405792D01*
X233646Y405672D01*
X233558Y405584D01*
X233471Y405497D01*
Y405486D01*
X233449Y405475D01*
X233427Y405442D01*
X233405Y405410D01*
X233329Y405300D01*
X233252Y405147D01*
X233165Y404961D01*
X233088Y404732D01*
X233044Y404470D01*
X233022Y404185D01*
Y404175D01*
Y404153D01*
Y404120D01*
X233033Y404065D01*
Y404000D01*
X233044Y403934D01*
X233077Y403770D01*
X233132Y403584D01*
X233197Y403388D01*
X233307Y403191D01*
X233449Y403016D01*
X233471Y402994D01*
X233525Y402950D01*
X233624Y402874D01*
X233744Y402797D01*
X233908Y402710D01*
X234094Y402633D01*
X234301Y402590D01*
X234531Y402568D01*
X234596D01*
X234640Y402579D01*
X234760Y402590D01*
X234903Y402623D01*
X235077Y402677D01*
X235252Y402754D01*
X235427Y402863D01*
X235591Y403016D01*
X235613Y403038D01*
X235657Y403103D01*
X235722Y403202D01*
X235810Y403344D01*
X235886Y403519D01*
X235952Y403726D01*
X235996Y403978D01*
X236017Y404262D01*
Y404273D01*
Y404295D01*
Y404339D01*
X236006Y404393D01*
Y404470D01*
X235996Y404546D01*
X235963Y404721D01*
X235919Y404929D01*
X235842Y405147D01*
X235733Y405355D01*
X235591Y405541D01*
Y405552D01*
X235569Y405563D01*
X235515Y405617D01*
X235427Y405694D01*
X235307Y405781D01*
X235154Y405858D01*
X234979Y405934D01*
X234782Y405989D01*
X234673Y406011D01*
D02*
G37*
G36*
X229164Y405235D02*
X226782Y401847D01*
X229164D01*
Y405235D01*
D02*
G37*
G36*
X124991Y267336D02*
X124478D01*
X124346Y267325D01*
X124204D01*
X124029Y267314D01*
X123844Y267303D01*
X123636Y267281D01*
X123221Y267227D01*
X123013Y267194D01*
X122816Y267150D01*
X122630Y267106D01*
X122455Y267041D01*
X122302Y266975D01*
X122171Y266899D01*
X122160D01*
X122149Y266877D01*
X122117Y266855D01*
X122073Y266822D01*
X121975Y266724D01*
X121854Y266603D01*
X121745Y266440D01*
X121647Y266254D01*
X121603Y266155D01*
X121570Y266046D01*
X121559Y265926D01*
X121548Y265806D01*
Y265795D01*
Y265773D01*
Y265740D01*
X121559Y265696D01*
X121581Y265576D01*
X121614Y265434D01*
X121679Y265270D01*
X121778Y265095D01*
X121843Y265008D01*
X121909Y264920D01*
X121996Y264844D01*
X122095Y264767D01*
X122106D01*
X122127Y264745D01*
X122171Y264723D01*
X122226Y264691D01*
X122313Y264658D01*
X122412Y264614D01*
X122532Y264581D01*
X122674Y264538D01*
X122838Y264494D01*
X123024Y264450D01*
X123231Y264406D01*
X123461Y264374D01*
X123723Y264341D01*
X124007Y264319D01*
X124313Y264308D01*
X124652Y264297D01*
X124827D01*
X124958Y264308D01*
X125101D01*
X125275Y264319D01*
X125461Y264330D01*
X125658Y264352D01*
X126084Y264406D01*
X126292Y264439D01*
X126489Y264483D01*
X126674Y264527D01*
X126849Y264592D01*
X127002Y264658D01*
X127134Y264734D01*
X127144D01*
X127155Y264756D01*
X127232Y264811D01*
X127330Y264909D01*
X127439Y265030D01*
X127549Y265194D01*
X127647Y265379D01*
X127724Y265587D01*
X127735Y265696D01*
X127746Y265816D01*
Y265827D01*
Y265849D01*
Y265882D01*
X127735Y265926D01*
X127713Y266035D01*
X127669Y266188D01*
X127593Y266352D01*
X127483Y266538D01*
X127418Y266625D01*
X127330Y266713D01*
X127243Y266800D01*
X127134Y266888D01*
X127123D01*
X127101Y266910D01*
X127068Y266931D01*
X127013Y266953D01*
X126937Y266997D01*
X126838Y267030D01*
X126729Y267073D01*
X126598Y267117D01*
X126434Y267150D01*
X126259Y267194D01*
X126051Y267237D01*
X125833Y267270D01*
X125570Y267292D01*
X125297Y267314D01*
X124991Y267336D01*
D02*
G37*
G36*
Y261455D02*
X124478D01*
X124346Y261444D01*
X124204D01*
X124029Y261434D01*
X123844Y261423D01*
X123636Y261401D01*
X123221Y261346D01*
X123013Y261313D01*
X122816Y261270D01*
X122630Y261226D01*
X122455Y261160D01*
X122302Y261095D01*
X122171Y261018D01*
X122160D01*
X122149Y260996D01*
X122117Y260975D01*
X122073Y260942D01*
X121975Y260843D01*
X121854Y260723D01*
X121745Y260559D01*
X121647Y260373D01*
X121603Y260275D01*
X121570Y260166D01*
X121559Y260045D01*
X121548Y259925D01*
Y259914D01*
Y259892D01*
Y259860D01*
X121559Y259816D01*
X121581Y259696D01*
X121614Y259554D01*
X121679Y259390D01*
X121778Y259215D01*
X121843Y259127D01*
X121909Y259040D01*
X121996Y258963D01*
X122095Y258887D01*
X122106D01*
X122127Y258865D01*
X122171Y258843D01*
X122226Y258810D01*
X122313Y258778D01*
X122412Y258734D01*
X122532Y258701D01*
X122674Y258657D01*
X122838Y258614D01*
X123024Y258570D01*
X123231Y258526D01*
X123461Y258493D01*
X123723Y258461D01*
X124007Y258439D01*
X124313Y258428D01*
X124652Y258417D01*
X124827D01*
X124958Y258428D01*
X125101D01*
X125275Y258439D01*
X125461Y258450D01*
X125658Y258471D01*
X126084Y258526D01*
X126292Y258559D01*
X126489Y258603D01*
X126674Y258646D01*
X126849Y258712D01*
X127002Y258778D01*
X127134Y258854D01*
X127144D01*
X127155Y258876D01*
X127232Y258931D01*
X127330Y259029D01*
X127439Y259149D01*
X127549Y259313D01*
X127647Y259499D01*
X127724Y259707D01*
X127735Y259816D01*
X127746Y259936D01*
Y259947D01*
Y259969D01*
Y260002D01*
X127735Y260045D01*
X127713Y260155D01*
X127669Y260308D01*
X127593Y260472D01*
X127483Y260658D01*
X127418Y260745D01*
X127330Y260832D01*
X127243Y260920D01*
X127134Y261007D01*
X127123D01*
X127101Y261029D01*
X127068Y261051D01*
X127013Y261073D01*
X126937Y261117D01*
X126838Y261149D01*
X126729Y261193D01*
X126598Y261237D01*
X126434Y261270D01*
X126259Y261313D01*
X126051Y261357D01*
X125833Y261390D01*
X125570Y261412D01*
X125297Y261434D01*
X124991Y261455D01*
D02*
G37*
G36*
X122761Y252362D02*
X122674D01*
X122576Y252340D01*
X122455Y252318D01*
X122324Y252274D01*
X122182Y252209D01*
X122040Y252121D01*
X121898Y252001D01*
X121887Y251990D01*
X121843Y251935D01*
X121789Y251859D01*
X121723Y251761D01*
X121658Y251629D01*
X121603Y251487D01*
X121559Y251312D01*
X121548Y251127D01*
Y251116D01*
Y251105D01*
Y251039D01*
X121570Y250941D01*
X121592Y250810D01*
X121636Y250668D01*
X121690Y250515D01*
X121778Y250372D01*
X121898Y250230D01*
X121909Y250219D01*
X121953Y250176D01*
X122029Y250121D01*
X122127Y250066D01*
X122248Y250001D01*
X122390Y249946D01*
X122543Y249902D01*
X122718Y249891D01*
X122740D01*
X122805Y249902D01*
X122904Y249913D01*
X123024Y249935D01*
X123166Y249979D01*
X123308Y250034D01*
X123461Y250121D01*
X123592Y250230D01*
X123603Y250241D01*
X123647Y250296D01*
X123702Y250372D01*
X123756Y250471D01*
X123822Y250602D01*
X123876Y250755D01*
X123920Y250930D01*
X123931Y251127D01*
Y251137D01*
Y251148D01*
X123920Y251214D01*
X123909Y251312D01*
X123887Y251444D01*
X123844Y251586D01*
X123789Y251728D01*
X123702Y251881D01*
X123592Y252012D01*
X123581Y252023D01*
X123527Y252067D01*
X123461Y252121D01*
X123363Y252187D01*
X123242Y252252D01*
X123100Y252307D01*
X122936Y252351D01*
X122761Y252362D01*
D02*
G37*
G36*
X113180Y261477D02*
X112666D01*
X112535Y261466D01*
X112393D01*
X112218Y261455D01*
X112032Y261444D01*
X111825Y261423D01*
X111409Y261368D01*
X111202Y261335D01*
X111005Y261292D01*
X110819Y261248D01*
X110644Y261182D01*
X110491Y261117D01*
X110360Y261040D01*
X110349D01*
X110338Y261018D01*
X110306Y260996D01*
X110262Y260964D01*
X110163Y260865D01*
X110043Y260745D01*
X109934Y260581D01*
X109836Y260395D01*
X109792Y260297D01*
X109759Y260188D01*
X109748Y260067D01*
X109737Y259947D01*
Y259936D01*
Y259914D01*
Y259881D01*
X109748Y259838D01*
X109770Y259717D01*
X109803Y259576D01*
X109868Y259412D01*
X109967Y259237D01*
X110032Y259149D01*
X110098Y259062D01*
X110185Y258985D01*
X110284Y258909D01*
X110295D01*
X110317Y258887D01*
X110360Y258865D01*
X110415Y258832D01*
X110502Y258799D01*
X110601Y258756D01*
X110721Y258723D01*
X110863Y258679D01*
X111027Y258635D01*
X111213Y258592D01*
X111420Y258548D01*
X111650Y258515D01*
X111912Y258483D01*
X112197Y258461D01*
X112503Y258450D01*
X112841Y258439D01*
X113016D01*
X113147Y258450D01*
X113289D01*
X113464Y258461D01*
X113650Y258471D01*
X113847Y258493D01*
X114273Y258548D01*
X114481Y258581D01*
X114678Y258625D01*
X114863Y258668D01*
X115038Y258734D01*
X115191Y258799D01*
X115322Y258876D01*
X115333D01*
X115344Y258898D01*
X115421Y258952D01*
X115519Y259051D01*
X115629Y259171D01*
X115738Y259335D01*
X115836Y259521D01*
X115913Y259729D01*
X115924Y259838D01*
X115935Y259958D01*
Y259969D01*
Y259991D01*
Y260024D01*
X115924Y260067D01*
X115902Y260177D01*
X115858Y260330D01*
X115781Y260494D01*
X115672Y260679D01*
X115607Y260767D01*
X115519Y260854D01*
X115432Y260942D01*
X115322Y261029D01*
X115312D01*
X115290Y261051D01*
X115257Y261073D01*
X115202Y261095D01*
X115126Y261139D01*
X115027Y261171D01*
X114918Y261215D01*
X114787Y261259D01*
X114623Y261292D01*
X114448Y261335D01*
X114240Y261379D01*
X114022Y261412D01*
X113760Y261434D01*
X113486Y261455D01*
X113180Y261477D01*
D02*
G37*
G36*
X114175Y246798D02*
X114098D01*
X114044Y246787D01*
X113978D01*
X113901Y246776D01*
X113727Y246744D01*
X113530Y246700D01*
X113322Y246623D01*
X113126Y246514D01*
X112940Y246372D01*
X112918Y246350D01*
X112863Y246295D01*
X112798Y246208D01*
X112710Y246088D01*
X112623Y245935D01*
X112557Y245760D01*
X112503Y245552D01*
X112481Y245323D01*
Y245312D01*
Y245290D01*
Y245257D01*
X112492Y245213D01*
X112503Y245104D01*
X112535Y244951D01*
X112590Y244787D01*
X112677Y244601D01*
X112787Y244426D01*
X112940Y244252D01*
X112962Y244230D01*
X113016Y244186D01*
X113115Y244110D01*
X113257Y244033D01*
X113421Y243956D01*
X113628Y243880D01*
X113858Y243836D01*
X114120Y243814D01*
X114197D01*
X114295Y243825D01*
X114415Y243836D01*
X114557Y243858D01*
X114710Y243902D01*
X114874Y243946D01*
X115038Y244011D01*
X115060Y244022D01*
X115115Y244055D01*
X115191Y244099D01*
X115290Y244164D01*
X115388Y244241D01*
X115508Y244339D01*
X115607Y244448D01*
X115705Y244580D01*
X115716Y244601D01*
X115738Y244645D01*
X115781Y244722D01*
X115814Y244820D01*
X115858Y244929D01*
X115902Y245060D01*
X115924Y245202D01*
X115935Y245356D01*
Y245367D01*
Y245377D01*
Y245410D01*
X115924Y245454D01*
X115913Y245563D01*
X115880Y245705D01*
X115814Y245858D01*
X115738Y246033D01*
X115618Y246208D01*
X115552Y246295D01*
X115464Y246372D01*
X115454D01*
X115443Y246394D01*
X115377Y246438D01*
X115268Y246503D01*
X115126Y246591D01*
X114940Y246667D01*
X114721Y246733D01*
X114470Y246776D01*
X114175Y246798D01*
D02*
G37*
G36*
X249073Y417822D02*
X249008D01*
X248964Y417811D01*
X248844Y417789D01*
X248702Y417756D01*
X248538Y417691D01*
X248363Y417592D01*
X248275Y417527D01*
X248188Y417461D01*
X248111Y417374D01*
X248035Y417275D01*
Y417264D01*
X248013Y417242D01*
X247991Y417199D01*
X247958Y417144D01*
X247926Y417057D01*
X247882Y416958D01*
X247849Y416838D01*
X247805Y416696D01*
X247762Y416532D01*
X247718Y416346D01*
X247674Y416139D01*
X247641Y415909D01*
X247609Y415647D01*
X247587Y415363D01*
X247576Y415057D01*
X247565Y414718D01*
Y414696D01*
Y414641D01*
Y414543D01*
X247576Y414412D01*
Y414270D01*
X247587Y414095D01*
X247598Y413909D01*
X247620Y413712D01*
X247674Y413286D01*
X247707Y413078D01*
X247751Y412882D01*
X247795Y412696D01*
X247860Y412521D01*
X247926Y412368D01*
X248002Y412237D01*
Y412226D01*
X248024Y412215D01*
X248079Y412138D01*
X248177Y412040D01*
X248297Y411931D01*
X248461Y411821D01*
X248647Y411723D01*
X248855Y411646D01*
X248964Y411635D01*
X249084Y411624D01*
X249150D01*
X249194Y411635D01*
X249303Y411657D01*
X249456Y411701D01*
X249620Y411777D01*
X249806Y411887D01*
X249893Y411952D01*
X249980Y412040D01*
X250068Y412127D01*
X250155Y412237D01*
Y412248D01*
X250177Y412269D01*
X250199Y412302D01*
X250221Y412357D01*
X250265Y412433D01*
X250297Y412532D01*
X250341Y412641D01*
X250385Y412772D01*
X250418Y412936D01*
X250461Y413111D01*
X250505Y413319D01*
X250538Y413537D01*
X250560Y413800D01*
X250582Y414073D01*
X250604Y414379D01*
Y414718D01*
Y414729D01*
Y414740D01*
Y414794D01*
Y414893D01*
X250592Y415024D01*
Y415166D01*
X250582Y415341D01*
X250571Y415526D01*
X250549Y415734D01*
X250494Y416150D01*
X250461Y416357D01*
X250418Y416554D01*
X250374Y416740D01*
X250308Y416915D01*
X250243Y417068D01*
X250166Y417199D01*
Y417210D01*
X250144Y417221D01*
X250123Y417253D01*
X250090Y417297D01*
X249991Y417396D01*
X249871Y417516D01*
X249707Y417625D01*
X249521Y417724D01*
X249423Y417767D01*
X249314Y417800D01*
X249194Y417811D01*
X249073Y417822D01*
D02*
G37*
G36*
X249232Y406011D02*
X249166D01*
X249122Y406000D01*
X249002Y405978D01*
X248860Y405945D01*
X248696Y405880D01*
X248521Y405781D01*
X248434Y405716D01*
X248346Y405650D01*
X248270Y405563D01*
X248193Y405464D01*
Y405453D01*
X248171Y405432D01*
X248150Y405388D01*
X248117Y405333D01*
X248084Y405246D01*
X248040Y405147D01*
X248008Y405027D01*
X247964Y404885D01*
X247920Y404721D01*
X247876Y404535D01*
X247833Y404328D01*
X247800Y404098D01*
X247767Y403836D01*
X247745Y403552D01*
X247734Y403245D01*
X247723Y402907D01*
Y402885D01*
Y402830D01*
Y402732D01*
X247734Y402601D01*
Y402459D01*
X247745Y402284D01*
X247756Y402098D01*
X247778Y401901D01*
X247833Y401475D01*
X247866Y401267D01*
X247909Y401070D01*
X247953Y400885D01*
X248019Y400710D01*
X248084Y400557D01*
X248161Y400426D01*
Y400415D01*
X248183Y400404D01*
X248237Y400327D01*
X248336Y400229D01*
X248456Y400119D01*
X248620Y400010D01*
X248805Y399912D01*
X249013Y399835D01*
X249122Y399824D01*
X249243Y399814D01*
X249308D01*
X249352Y399824D01*
X249461Y399846D01*
X249614Y399890D01*
X249778Y399967D01*
X249964Y400076D01*
X250051Y400141D01*
X250139Y400229D01*
X250226Y400316D01*
X250314Y400426D01*
Y400436D01*
X250336Y400458D01*
X250358Y400491D01*
X250379Y400546D01*
X250423Y400622D01*
X250456Y400721D01*
X250500Y400830D01*
X250543Y400961D01*
X250576Y401125D01*
X250620Y401300D01*
X250664Y401508D01*
X250696Y401726D01*
X250718Y401989D01*
X250740Y402262D01*
X250762Y402568D01*
Y402907D01*
Y402918D01*
Y402928D01*
Y402983D01*
Y403082D01*
X250751Y403213D01*
Y403355D01*
X250740Y403530D01*
X250729Y403716D01*
X250707Y403923D01*
X250653Y404339D01*
X250620Y404546D01*
X250576Y404743D01*
X250532Y404929D01*
X250467Y405104D01*
X250401Y405257D01*
X250325Y405388D01*
Y405399D01*
X250303Y405410D01*
X250281Y405442D01*
X250248Y405486D01*
X250150Y405584D01*
X250030Y405705D01*
X249866Y405814D01*
X249680Y405912D01*
X249582Y405956D01*
X249472Y405989D01*
X249352Y406000D01*
X249232Y406011D01*
D02*
G37*
G36*
X243351D02*
X243286D01*
X243242Y406000D01*
X243122Y405978D01*
X242980Y405945D01*
X242816Y405880D01*
X242641Y405781D01*
X242553Y405716D01*
X242466Y405650D01*
X242390Y405563D01*
X242313Y405464D01*
Y405453D01*
X242291Y405432D01*
X242269Y405388D01*
X242236Y405333D01*
X242204Y405246D01*
X242160Y405147D01*
X242127Y405027D01*
X242084Y404885D01*
X242040Y404721D01*
X241996Y404535D01*
X241952Y404328D01*
X241920Y404098D01*
X241887Y403836D01*
X241865Y403552D01*
X241854Y403245D01*
X241843Y402907D01*
Y402885D01*
Y402830D01*
Y402732D01*
X241854Y402601D01*
Y402459D01*
X241865Y402284D01*
X241876Y402098D01*
X241898Y401901D01*
X241952Y401475D01*
X241985Y401267D01*
X242029Y401070D01*
X242073Y400885D01*
X242138Y400710D01*
X242204Y400557D01*
X242280Y400426D01*
Y400415D01*
X242302Y400404D01*
X242357Y400327D01*
X242455Y400229D01*
X242575Y400119D01*
X242739Y400010D01*
X242925Y399912D01*
X243133Y399835D01*
X243242Y399824D01*
X243362Y399814D01*
X243428D01*
X243472Y399824D01*
X243581Y399846D01*
X243734Y399890D01*
X243898Y399967D01*
X244084Y400076D01*
X244171Y400141D01*
X244259Y400229D01*
X244346Y400316D01*
X244433Y400426D01*
Y400436D01*
X244455Y400458D01*
X244477Y400491D01*
X244499Y400546D01*
X244543Y400622D01*
X244576Y400721D01*
X244619Y400830D01*
X244663Y400961D01*
X244696Y401125D01*
X244740Y401300D01*
X244783Y401508D01*
X244816Y401726D01*
X244838Y401989D01*
X244860Y402262D01*
X244882Y402568D01*
Y402907D01*
Y402918D01*
Y402928D01*
Y402983D01*
Y403082D01*
X244871Y403213D01*
Y403355D01*
X244860Y403530D01*
X244849Y403716D01*
X244827Y403923D01*
X244772Y404339D01*
X244740Y404546D01*
X244696Y404743D01*
X244652Y404929D01*
X244586Y405104D01*
X244521Y405257D01*
X244444Y405388D01*
Y405399D01*
X244423Y405410D01*
X244401Y405442D01*
X244368Y405486D01*
X244269Y405584D01*
X244149Y405705D01*
X243985Y405814D01*
X243799Y405912D01*
X243701Y405956D01*
X243592Y405989D01*
X243472Y406000D01*
X243351Y406011D01*
D02*
G37*
G36*
X113180Y267358D02*
X112666D01*
X112535Y267347D01*
X112393D01*
X112218Y267336D01*
X112032Y267325D01*
X111825Y267303D01*
X111409Y267248D01*
X111202Y267215D01*
X111005Y267172D01*
X110819Y267128D01*
X110644Y267062D01*
X110491Y266997D01*
X110360Y266920D01*
X110349D01*
X110338Y266899D01*
X110306Y266877D01*
X110262Y266844D01*
X110163Y266745D01*
X110043Y266625D01*
X109934Y266461D01*
X109836Y266276D01*
X109792Y266177D01*
X109759Y266068D01*
X109748Y265948D01*
X109737Y265827D01*
Y265816D01*
Y265795D01*
Y265762D01*
X109748Y265718D01*
X109770Y265598D01*
X109803Y265456D01*
X109868Y265292D01*
X109967Y265117D01*
X110032Y265030D01*
X110098Y264942D01*
X110185Y264866D01*
X110284Y264789D01*
X110295D01*
X110317Y264767D01*
X110360Y264745D01*
X110415Y264713D01*
X110502Y264680D01*
X110601Y264636D01*
X110721Y264603D01*
X110863Y264560D01*
X111027Y264516D01*
X111213Y264472D01*
X111420Y264428D01*
X111650Y264396D01*
X111912Y264363D01*
X112197Y264341D01*
X112503Y264330D01*
X112841Y264319D01*
X113016D01*
X113147Y264330D01*
X113289D01*
X113464Y264341D01*
X113650Y264352D01*
X113847Y264374D01*
X114273Y264428D01*
X114481Y264461D01*
X114678Y264505D01*
X114863Y264549D01*
X115038Y264614D01*
X115191Y264680D01*
X115322Y264756D01*
X115333D01*
X115344Y264778D01*
X115421Y264833D01*
X115519Y264931D01*
X115629Y265051D01*
X115738Y265215D01*
X115836Y265401D01*
X115913Y265609D01*
X115924Y265718D01*
X115935Y265838D01*
Y265849D01*
Y265871D01*
Y265904D01*
X115924Y265948D01*
X115902Y266057D01*
X115858Y266210D01*
X115781Y266374D01*
X115672Y266560D01*
X115607Y266647D01*
X115519Y266735D01*
X115432Y266822D01*
X115322Y266910D01*
X115312D01*
X115290Y266931D01*
X115257Y266953D01*
X115202Y266975D01*
X115126Y267019D01*
X115027Y267052D01*
X114918Y267095D01*
X114787Y267139D01*
X114623Y267172D01*
X114448Y267215D01*
X114240Y267259D01*
X114022Y267292D01*
X113760Y267314D01*
X113486Y267336D01*
X113180Y267358D01*
D02*
G37*
%LPD*%
D20*
X123016Y151575D02*
X141316D01*
X123016Y379921D02*
X141316D01*
X124016Y151575D02*
Y241265D01*
Y287231D02*
Y379921D01*
Y151575D02*
X126016Y157575D01*
X122016D02*
X124016Y151575D01*
X122016Y373921D02*
X124016Y379921D01*
X126016Y373921D01*
X345472Y391164D02*
Y404543D01*
X152559Y391164D02*
Y404543D01*
X270657Y403543D02*
X345472D01*
X152559D02*
X224374D01*
X339472Y405543D02*
X345472Y403543D01*
X339472Y401543D02*
X345472Y403543D01*
X152559D02*
X158559Y401543D01*
X152559Y403543D02*
X158559Y405543D01*
X111205Y137795D02*
X136295D01*
X111205Y393701D02*
X136295D01*
X112205Y137795D02*
Y241243D01*
Y287253D02*
Y393701D01*
Y137795D02*
X114205Y143795D01*
X110205D02*
X112205Y137795D01*
X110205Y387701D02*
X112205Y393701D01*
X114205Y387701D01*
X360236Y395201D02*
Y416354D01*
X137795Y395201D02*
Y416354D01*
X270499Y415354D02*
X360236D01*
X137795D02*
X224533D01*
X354236Y417354D02*
X360236Y415354D01*
X354236Y413354D02*
X360236Y415354D01*
X137795D02*
X143795Y413354D01*
X137795Y415354D02*
X143795Y417354D01*
X138795Y393701D02*
X373047D01*
X288958Y255905D02*
X373047D01*
X372047Y346280D02*
Y393701D01*
Y255905D02*
Y300325D01*
X370047Y387701D02*
X372047Y393701D01*
X374047Y387701D01*
X372047Y255905D02*
X374047Y261905D01*
X370047D02*
X372047Y255905D01*
D44*
X145559Y360748D02*
X149559D01*
X147559Y358748D02*
Y362748D01*
X145559Y350748D02*
X149559D01*
X147559Y348748D02*
Y352748D01*
X145559Y340748D02*
X149559D01*
X147559Y338748D02*
Y342748D01*
X145559Y330748D02*
X149559D01*
X147559Y328748D02*
Y332748D01*
X145559Y320748D02*
X149559D01*
X147559Y318748D02*
Y322748D01*
X145559Y310748D02*
X149559D01*
X147559Y308748D02*
Y312748D01*
X155559Y360748D02*
X159559D01*
X157559Y358748D02*
Y362748D01*
X155559Y350748D02*
X159559D01*
X157559Y348748D02*
Y352748D01*
X155559Y340748D02*
X159559D01*
X157559Y338748D02*
Y342748D01*
X155559Y330748D02*
X159559D01*
X157559Y328748D02*
Y332748D01*
X155559Y320748D02*
X159559D01*
X157559Y318748D02*
Y322748D01*
X155559Y310748D02*
X159559D01*
X157559Y308748D02*
Y312748D01*
X145559Y300748D02*
X149559D01*
X147559Y298748D02*
Y302748D01*
X155559Y300748D02*
X159559D01*
X157559Y298748D02*
Y302748D01*
X145559Y290748D02*
X149559D01*
X147559Y288748D02*
Y292748D01*
X145559Y280748D02*
X149559D01*
X147559Y278748D02*
Y282748D01*
X145559Y270748D02*
X149559D01*
X147559Y268748D02*
Y272748D01*
X145559Y260748D02*
X149559D01*
X147559Y258748D02*
Y262748D01*
X145559Y250748D02*
X149559D01*
X147559Y248748D02*
Y252748D01*
X145559Y240748D02*
X149559D01*
X147559Y238748D02*
Y242748D01*
X155559Y290748D02*
X159559D01*
X157559Y288748D02*
Y292748D01*
X155559Y280748D02*
X159559D01*
X157559Y278748D02*
Y282748D01*
X155559Y270748D02*
X159559D01*
X157559Y268748D02*
Y272748D01*
X155559Y260748D02*
X159559D01*
X157559Y258748D02*
Y262748D01*
X155559Y250748D02*
X159559D01*
X157559Y248748D02*
Y252748D01*
X155559Y240748D02*
X159559D01*
X157559Y238748D02*
Y242748D01*
X145559Y230748D02*
X149559D01*
X147559Y228748D02*
Y232748D01*
X155559Y230748D02*
X159559D01*
X157559Y228748D02*
Y232748D01*
X145559Y220748D02*
X149559D01*
X147559Y218748D02*
Y222748D01*
X145559Y210748D02*
X149559D01*
X147559Y208748D02*
Y212748D01*
X145559Y200748D02*
X149559D01*
X147559Y198748D02*
Y202748D01*
X145559Y190748D02*
X149559D01*
X147559Y188748D02*
Y192748D01*
X145559Y180748D02*
X149559D01*
X147559Y178748D02*
Y182748D01*
X155559Y220748D02*
X159559D01*
X157559Y218748D02*
Y222748D01*
X155559Y210748D02*
X159559D01*
X157559Y208748D02*
Y212748D01*
X155559Y200748D02*
X159559D01*
X157559Y198748D02*
Y202748D01*
X155559Y190748D02*
X159559D01*
X157559Y188748D02*
Y192748D01*
X155559Y180748D02*
X159559D01*
X157559Y178748D02*
Y182748D01*
X145559Y170748D02*
X149559D01*
X147559Y168748D02*
Y172748D01*
X155559Y170748D02*
X159559D01*
X157559Y168748D02*
Y172748D01*
X218307Y216535D02*
X222638D01*
X220472Y214370D02*
Y218701D01*
X218307Y226535D02*
X222638D01*
X220472Y224370D02*
Y228701D01*
X218307Y206535D02*
X222638D01*
X220472Y204370D02*
Y208701D01*
X243701Y235433D02*
X252362D01*
X248031Y231102D02*
Y239764D01*
X243701Y197638D02*
X252362D01*
X248031Y193307D02*
Y201969D01*
X146653Y379921D02*
X158465D01*
X152559Y374016D02*
Y385827D01*
X339567Y379921D02*
X351378D01*
X345472Y374016D02*
Y385827D01*
X339567Y151575D02*
X351378D01*
X345472Y145669D02*
Y157480D01*
X146653Y151575D02*
X158465D01*
X152559Y145669D02*
Y157480D01*
X287697Y156189D02*
X292618D01*
X290158Y153728D02*
Y158650D01*
X307382Y156189D02*
X312303D01*
X309842Y153728D02*
Y158650D01*
X166858Y234173D02*
X170858D01*
X168858Y232173D02*
Y236173D01*
X176858Y234173D02*
X180858D01*
X178858Y232173D02*
Y236173D01*
X282015Y255905D02*
X286015D01*
X284015Y253905D02*
Y257905D01*
X272015Y255905D02*
X276015D01*
X274015Y253905D02*
Y257905D01*
X262015Y255905D02*
X266015D01*
X264015Y253905D02*
Y257905D01*
X212015Y255905D02*
X216015D01*
X214015Y253905D02*
Y257905D01*
X222015Y255905D02*
X226015D01*
X224015Y253905D02*
Y257905D01*
X232015Y255905D02*
X236015D01*
X234015Y253905D02*
Y257905D01*
X242015Y255905D02*
X246015D01*
X244015Y253905D02*
Y257905D01*
X252015Y255905D02*
X256015D01*
X254015Y253905D02*
Y257905D01*
X188000Y144252D02*
X192000D01*
X190000Y142252D02*
Y146252D01*
X198000Y144252D02*
X202000D01*
X200000Y142252D02*
Y146252D01*
X208000Y144252D02*
X212000D01*
X210000Y142252D02*
Y146252D01*
X218000Y144252D02*
X222000D01*
X220000Y142252D02*
Y146252D01*
X228000Y144252D02*
X232000D01*
X230000Y142252D02*
Y146252D01*
X238000Y144252D02*
X242000D01*
X240000Y142252D02*
Y146252D01*
X248000Y144252D02*
X252000D01*
X250000Y142252D02*
Y146252D01*
X258000Y144252D02*
X262000D01*
X260000Y142252D02*
Y146252D01*
X237589Y232283D02*
X238789D01*
X238189Y231683D02*
Y232884D01*
X237589Y216535D02*
X238789D01*
X238189Y215935D02*
Y217135D01*
X237589Y200787D02*
X238789D01*
X238189Y200187D02*
Y201387D01*
X174597Y155512D02*
X175797D01*
X175197Y154912D02*
Y156112D01*
X174597Y143701D02*
X175797D01*
X175197Y143101D02*
Y144301D01*
X265148Y200787D02*
X266348D01*
X265748Y200187D02*
Y201387D01*
X265148Y216535D02*
X266348D01*
X265748Y215935D02*
Y217135D01*
X265148Y232283D02*
X266348D01*
X265748Y231683D02*
Y232884D01*
X237589Y161417D02*
X238789D01*
X238189Y160817D02*
Y162017D01*
X253337Y161417D02*
X254537D01*
X253937Y160817D02*
Y162017D01*
X269085Y161417D02*
X270285D01*
X269685Y160817D02*
Y162017D01*
X336014Y240158D02*
X337214D01*
X336614Y239558D02*
Y240757D01*
X336014Y255906D02*
X337214D01*
X336614Y255306D02*
Y256505D01*
X336014Y271654D02*
X337214D01*
X336614Y271054D02*
Y272253D01*
X347825Y240158D02*
X349025D01*
X348425Y239558D02*
Y240757D01*
X347825Y255906D02*
X349025D01*
X348425Y255306D02*
Y256505D01*
X347825Y271654D02*
X349025D01*
X348425Y271054D02*
Y272253D01*
X169479Y220866D02*
X170679D01*
X170079Y220266D02*
Y221466D01*
X211998Y299213D02*
X213198D01*
X212598Y298613D02*
Y299813D01*
X227747Y299213D02*
X228946D01*
X228346Y298613D02*
Y299813D01*
X243495Y299213D02*
X244694D01*
X244094Y298613D02*
Y299813D01*
X310424Y287402D02*
X311624D01*
X311024Y286802D02*
Y288002D01*
X294676Y287402D02*
X295876D01*
X295276Y286802D02*
Y288002D01*
X278928Y287402D02*
X280128D01*
X279528Y286802D02*
Y288002D01*
X310424Y299213D02*
X311624D01*
X311024Y298613D02*
Y299813D01*
X294676Y299213D02*
X295876D01*
X295276Y298613D02*
Y299813D01*
X278928Y299213D02*
X280128D01*
X279528Y298613D02*
Y299813D01*
X263179Y326772D02*
X264380D01*
X263779Y326172D02*
Y327372D01*
X278928Y326772D02*
X280128D01*
X279528Y326172D02*
Y327372D01*
X294676Y326772D02*
X295876D01*
X295276Y326172D02*
Y327372D01*
X282865Y342520D02*
X284065D01*
X283465Y341920D02*
Y343120D01*
X267116Y342520D02*
X268317D01*
X267717Y341920D02*
Y343120D01*
X251368Y342520D02*
X252569D01*
X251969Y341920D02*
Y343120D01*
X200187Y295276D02*
X201387D01*
X200787Y294676D02*
Y295876D01*
X200187Y303150D02*
X201387D01*
X200787Y302550D02*
Y303750D01*
X192313Y303150D02*
X193513D01*
X192913Y302550D02*
Y303750D01*
X192038Y291102D02*
X193238D01*
X192638Y290502D02*
Y291702D01*
X192550Y220709D02*
X193750D01*
X193150Y220109D02*
Y221309D01*
X200581Y199646D02*
X201781D01*
X201181Y199046D02*
Y200246D01*
X180817Y219409D02*
X182017D01*
X181417Y218810D02*
Y220009D01*
X212463Y191693D02*
X213663D01*
X213063Y191093D02*
Y192293D01*
X187432Y226339D02*
X188631D01*
X188031Y225739D02*
Y226939D01*
X182589Y242480D02*
X183789D01*
X183189Y241880D02*
Y243080D01*
X184833Y270394D02*
X186033D01*
X185433Y269794D02*
Y270994D01*
X183849Y284488D02*
X185049D01*
X184449Y283888D02*
Y285088D01*
X296054Y279016D02*
X297253D01*
X296654Y278416D02*
Y279616D01*
X350778Y339291D02*
X351978D01*
X351378Y338691D02*
Y339891D01*
X171762Y273425D02*
X172962D01*
X172362Y272825D02*
Y274025D01*
X180896Y273425D02*
X182096D01*
X181496Y272825D02*
Y274025D01*
X315581Y307480D02*
X316781D01*
X316181Y306880D02*
Y308080D01*
X316684Y317441D02*
X317883D01*
X317284Y316841D02*
Y318041D01*
X321998Y322677D02*
X323198D01*
X322598Y322077D02*
Y323277D01*
X319990Y309213D02*
X321191D01*
X320590Y308613D02*
Y309813D01*
X176565Y273425D02*
X177765D01*
X177165Y272825D02*
Y274025D01*
X194794Y283819D02*
X195994D01*
X195394Y283219D02*
Y284419D01*
X257786Y286929D02*
X258986D01*
X258386Y286329D02*
Y287529D01*
X233416Y288032D02*
X234616D01*
X234016Y287432D02*
Y288632D01*
X194715Y288032D02*
X195915D01*
X195315Y287432D02*
Y288632D01*
X257550Y291102D02*
X258750D01*
X258150Y290502D02*
Y291702D01*
X210463Y242205D02*
X211663D01*
X211063Y241605D02*
Y242805D01*
X189660Y168315D02*
X190860D01*
X190260Y167715D02*
Y168915D01*
X192809Y168315D02*
X194009D01*
X193409Y167715D02*
Y168915D01*
X195959Y168315D02*
X197159D01*
X196559Y167715D02*
Y168915D01*
X255857Y182087D02*
X257057D01*
X256457Y181487D02*
Y182687D01*
X237274Y192323D02*
X238474D01*
X237874Y191723D02*
Y192923D01*
X216565Y165945D02*
X217765D01*
X217165Y165345D02*
Y166545D01*
X262550Y182008D02*
X263750D01*
X263150Y181408D02*
Y182608D01*
X229400Y155984D02*
X230600D01*
X230000Y155384D02*
Y156584D01*
X239400Y154409D02*
X240600D01*
X240000Y153809D02*
Y155009D01*
X249400Y152717D02*
X250600D01*
X250000Y152117D02*
Y153316D01*
X317077Y200827D02*
X318277D01*
X317677Y200227D02*
Y201427D01*
X270620Y192047D02*
X271820D01*
X271220Y191447D02*
Y192647D01*
X270620Y182362D02*
X271820D01*
X271220Y181762D02*
Y182962D01*
X314794Y188150D02*
X315994D01*
X315394Y187550D02*
Y188750D01*
X310660Y191969D02*
X311860D01*
X311260Y191368D02*
Y192569D01*
X344416Y210693D02*
X345616D01*
X345016Y210093D02*
Y211293D01*
X332707Y210709D02*
X333907D01*
X333307Y210109D02*
Y211309D01*
X288770Y231693D02*
X289970D01*
X289370Y231093D02*
Y232293D01*
X287117Y222008D02*
X288316D01*
X287717Y221408D02*
Y222608D01*
X187747Y267047D02*
X188946D01*
X188347Y266447D02*
Y267647D01*
X165581Y199094D02*
X166781D01*
X166181Y198495D02*
Y199695D01*
X164597Y173819D02*
X165797D01*
X165197Y173219D02*
Y174419D01*
X200715Y182874D02*
X201915D01*
X201315Y182274D02*
Y183474D01*
X199006Y186969D02*
X200206D01*
X199606Y186369D02*
Y187568D01*
X185148Y200591D02*
X186348D01*
X185748Y199991D02*
Y201191D01*
X241211Y174787D02*
X242411D01*
X241811Y174187D02*
Y175387D01*
X338550Y196224D02*
X339750D01*
X339150Y195624D02*
Y196824D01*
X338550Y199724D02*
X339750D01*
X339150Y199124D02*
Y200324D01*
X338550Y203224D02*
X339750D01*
X339150Y202624D02*
Y203824D01*
M02*
