G04*
G04 #@! TF.GenerationSoftware,Altium Limited,CircuitStudio,1.5.2 (30)*
G04*
G04 Layer_Color=20142*
%FSLAX25Y25*%
%MOIN*%
G70*
G01*
G75*
%ADD45R,0.04343X0.04737*%
%ADD46R,0.03753X0.06706*%
%ADD47R,0.04343X0.01587*%
%ADD48R,0.06706X0.10249*%
%ADD49R,0.04343X0.02572*%
%ADD50R,0.04540X0.01587*%
%ADD51R,0.06115X0.04737*%
%ADD52R,0.04737X0.04343*%
%ADD53R,0.05131X0.06706*%
%ADD54C,0.07887*%
%ADD55R,0.07887X0.07887*%
%ADD56O,0.09658X0.07887*%
%ADD57O,0.12611X0.11036*%
%ADD58C,0.20485*%
%ADD59O,0.09658X0.12611*%
%ADD60R,0.07887X0.07887*%
%ADD61C,0.03000*%
D45*
X167559Y188779D02*
D03*
X174252D02*
D03*
X167559Y180748D02*
D03*
X174252D02*
D03*
X335803Y185724D02*
D03*
X342496D02*
D03*
X297323Y210906D02*
D03*
X304016D02*
D03*
X214015Y267039D02*
D03*
X220708D02*
D03*
X256465Y175787D02*
D03*
X263158D02*
D03*
X210465Y171787D02*
D03*
X217158D02*
D03*
X210465Y180787D02*
D03*
X217158D02*
D03*
X194748Y255905D02*
D03*
X201441D02*
D03*
X194748Y267039D02*
D03*
X201441D02*
D03*
X303441Y247165D02*
D03*
X296748D02*
D03*
X303441Y255905D02*
D03*
X296748D02*
D03*
X334347Y331693D02*
D03*
X327654D02*
D03*
X334347Y322693D02*
D03*
X327654D02*
D03*
X334347Y312693D02*
D03*
X327654D02*
D03*
D46*
X241811Y174787D02*
D03*
D47*
X246102Y171835D02*
D03*
Y173803D02*
D03*
Y175772D02*
D03*
Y177740D02*
D03*
X237520Y171835D02*
D03*
Y173803D02*
D03*
Y175772D02*
D03*
Y177740D02*
D03*
D48*
X339150Y199724D02*
D03*
D49*
X345016Y195787D02*
D03*
Y199724D02*
D03*
Y203661D02*
D03*
X333283Y195787D02*
D03*
Y199724D02*
D03*
Y203661D02*
D03*
D50*
X304484Y218795D02*
D03*
Y220370D02*
D03*
Y221945D02*
D03*
Y223520D02*
D03*
Y225095D02*
D03*
X296886Y218795D02*
D03*
Y220370D02*
D03*
Y221945D02*
D03*
Y223520D02*
D03*
Y225095D02*
D03*
D51*
X179842Y323335D02*
D03*
Y331799D02*
D03*
D52*
X168842Y324024D02*
D03*
Y330716D02*
D03*
X317685Y225291D02*
D03*
Y218599D02*
D03*
X281685Y218599D02*
D03*
Y225291D02*
D03*
X226811Y180134D02*
D03*
Y173441D02*
D03*
D53*
X345472Y316929D02*
D03*
X351378D02*
D03*
Y328740D02*
D03*
X345472D02*
D03*
D54*
X147559Y360748D02*
D03*
Y350748D02*
D03*
Y340748D02*
D03*
Y330748D02*
D03*
Y320748D02*
D03*
Y310748D02*
D03*
X157559Y360748D02*
D03*
Y350748D02*
D03*
Y340748D02*
D03*
Y330748D02*
D03*
Y320748D02*
D03*
Y310748D02*
D03*
X147559Y300748D02*
D03*
X157559D02*
D03*
X147559Y290748D02*
D03*
Y280748D02*
D03*
Y270748D02*
D03*
Y260748D02*
D03*
Y250748D02*
D03*
Y240748D02*
D03*
X157559Y290748D02*
D03*
Y280748D02*
D03*
Y270748D02*
D03*
Y260748D02*
D03*
Y250748D02*
D03*
Y240748D02*
D03*
X147559Y230748D02*
D03*
X157559D02*
D03*
X147559Y220748D02*
D03*
Y210748D02*
D03*
Y200748D02*
D03*
Y190748D02*
D03*
Y180748D02*
D03*
X157559Y220748D02*
D03*
Y210748D02*
D03*
Y200748D02*
D03*
Y190748D02*
D03*
Y180748D02*
D03*
X147559Y170748D02*
D03*
X168858Y234173D02*
D03*
X178858D02*
D03*
X284015Y255905D02*
D03*
X274015D02*
D03*
X264015D02*
D03*
X224015D02*
D03*
X234015D02*
D03*
X244015D02*
D03*
X254015D02*
D03*
X190000Y144252D02*
D03*
X200000D02*
D03*
X210000D02*
D03*
X220000D02*
D03*
X230000D02*
D03*
X240000D02*
D03*
X250000D02*
D03*
D55*
X157559Y170748D02*
D03*
X214015Y255905D02*
D03*
D56*
X220472Y216535D02*
D03*
Y226535D02*
D03*
Y206535D02*
D03*
D57*
X248031Y235433D02*
D03*
Y197638D02*
D03*
D58*
X152559Y379921D02*
D03*
X345472Y379921D02*
D03*
Y151575D02*
D03*
X152559Y151575D02*
D03*
D59*
X290158Y156189D02*
D03*
X309842D02*
D03*
D60*
X260000Y144252D02*
D03*
D61*
X238189Y232283D02*
D03*
Y216535D02*
D03*
Y200787D02*
D03*
X175197Y155512D02*
D03*
Y143701D02*
D03*
X265748Y200787D02*
D03*
Y216535D02*
D03*
Y232283D02*
D03*
X238189Y161417D02*
D03*
X253937D02*
D03*
X269685D02*
D03*
X336614Y240158D02*
D03*
Y255906D02*
D03*
Y271654D02*
D03*
X348425Y240158D02*
D03*
Y255906D02*
D03*
Y271654D02*
D03*
X170079Y220866D02*
D03*
X212598Y299213D02*
D03*
X228346D02*
D03*
X244094D02*
D03*
X311024Y287402D02*
D03*
X295276D02*
D03*
X279528D02*
D03*
X311024Y299213D02*
D03*
X295276D02*
D03*
X279528D02*
D03*
X263779Y326772D02*
D03*
X279528D02*
D03*
X295276D02*
D03*
X283465Y342520D02*
D03*
X267717D02*
D03*
X251969D02*
D03*
X200787Y295276D02*
D03*
Y303150D02*
D03*
X192913D02*
D03*
X192638Y291102D02*
D03*
X193150Y220709D02*
D03*
X201181Y199646D02*
D03*
X181417Y219409D02*
D03*
X213063Y191693D02*
D03*
X188031Y226339D02*
D03*
X183189Y242480D02*
D03*
X185433Y270394D02*
D03*
X184449Y284488D02*
D03*
X296654Y279016D02*
D03*
X351378Y339291D02*
D03*
X172362Y273425D02*
D03*
X181496D02*
D03*
X316181Y307480D02*
D03*
X317284Y317441D02*
D03*
X322598Y322677D02*
D03*
X320590Y309213D02*
D03*
X177165Y273425D02*
D03*
X195394Y283819D02*
D03*
X258386Y286929D02*
D03*
X234016Y288032D02*
D03*
X195315D02*
D03*
X258150Y291102D02*
D03*
X211063Y242205D02*
D03*
X190260Y168315D02*
D03*
X193409D02*
D03*
X196559D02*
D03*
X256457Y182087D02*
D03*
X237874Y192323D02*
D03*
X217165Y165945D02*
D03*
X263150Y182008D02*
D03*
X230000Y155984D02*
D03*
X240000Y154409D02*
D03*
X250000Y152717D02*
D03*
X317677Y200827D02*
D03*
X271220Y192047D02*
D03*
Y182362D02*
D03*
X315394Y188150D02*
D03*
X311260Y191969D02*
D03*
X345016Y210693D02*
D03*
X333307Y210709D02*
D03*
X289370Y231693D02*
D03*
X287717Y222008D02*
D03*
X188347Y267047D02*
D03*
X166181Y199094D02*
D03*
X165197Y173819D02*
D03*
X201315Y182874D02*
D03*
X199606Y186969D02*
D03*
X185748Y200591D02*
D03*
X241811Y174787D02*
D03*
X339150Y196224D02*
D03*
Y199724D02*
D03*
Y203224D02*
D03*
M02*
