M48
;Layer_Color=6321
;FILE_FORMAT=2:5
INCH,LZ
;TYPE=PLATED
T1F00S00C0.01200
T2F00S00C0.04000
T3F00S00C0.04331
T4F00S00C0.04921
T5F00S00C0.08661
T6F00S00C0.11811
%
T01
X0175197Y0143701
Y0155512
X023Y0155984
X024Y0154409
X025Y0152717
X0315394Y018815
X0317677Y0200827
X033915Y0199724
Y0196224
Y0203224
X0333307Y0210709
X0345016Y0210693
X0348425Y0240158
X0336614
Y0255906
X0348425
Y0271654
X0336614
X032059Y0309213
X0316181Y030748
X0311024Y0299213
Y0287402
X0295276
X0296654Y0279016
X0295276Y0299213
X0279528
Y0287402
X0258386Y0286929
X025815Y0291102
X0244094Y0299213
X0228346
X0212598
X0200787Y0295276
Y030315
X0192913
X0192638Y0291102
X0195315Y0288032
X0195394Y0283819
X0184449Y0284488
X0181496Y0273425
X0177165
X0172362
X0185433Y0270394
X0188347Y0267047
X0183189Y024248
X0188031Y0226339
X019315Y0220709
X0181417Y0219409
X0170079Y0220866
X0166181Y0199094
X0185748Y0200591
X0201181Y0199646
X0199606Y0186969
X0201315Y0182874
X0196559Y0168315
X0193409
X019026
X0217165Y0165945
X0238189Y0161417
X0253937
X0269685
X027122Y0182362
X026315Y0182008
X0256457Y0182087
X0241811Y0174787
X0237874Y0192323
X0238189Y0200787
Y0216535
Y0232283
X0265748
Y0216535
Y0200787
X027122Y0192047
X031126Y0191969
X0287717Y0222008
X028937Y0231693
X0211063Y0242205
X0213063Y0191693
X0165197Y0173819
X0234016Y0288032
X0263779Y0326772
X0279528
X0295276
X0283465Y034252
X0267717
X0251969
X0317284Y0317441
X0322598Y0322677
X0351378Y0339291
T02
X019Y0144252
X02
X021
X022
X023
X024
X025
X026
X0264015Y0255905
X0274015
X0284015
X0254015
X0244015
X0234015
X0224015
X0214015
X0178858Y0234173
X0168858
X0157559Y0230748
Y0240748
Y0250748
Y0260748
Y0270748
Y0280748
Y0290748
Y0300748
Y0310748
Y0220748
Y0210748
Y0200748
Y0190748
Y0180748
Y0170748
X0147559
Y0180748
Y0190748
Y0200748
Y0210748
Y0220748
Y0230748
Y0240748
Y0250748
Y0260748
Y0270748
Y0280748
Y0290748
Y0300748
Y0310748
Y0320748
Y0330748
Y0340748
Y0350748
Y0360748
X0157559
Y0350748
Y0340748
Y0330748
Y0320748
T03
X0220472Y0206535
Y0216535
Y0226535
T04
X0290158Y0156189
X0309842
T05
X0248031Y0197638
Y0235433
T06
X0152559Y0151575
X0345472Y0151575
X0152559Y0379921
X0345472Y0379921
M30
